<svg width="58" height="57" viewBox="0 0 58 57" fill="none" xmlns="http://www.w3.org/2000/svg">
<path d="M55 16.5H51C49.792 16.5 48.783 17.36 48.551 18.5H41V19.5H46.5V38H47.5V19.5H48.5V39C48.5 40.378 49.621 41.5 51 41.5H55C56.379 41.5 57.5 40.378 57.5 39V19C57.5 17.622 56.379 16.5 55 16.5ZM56.5 39C56.5 39.827 55.827 40.5 55 40.5H51C50.173 40.5 49.5 39.827 49.5 39V19C49.5 18.173 50.173 17.5 51 17.5H55C55.827 17.5 56.5 18.173 56.5 19V39Z" fill="white"/>
<path d="M17 19.5V18.5H9.449C9.217 17.36 8.207 16.5 7 16.5H3C1.621 16.5 0.5 17.622 0.5 19V39C0.5 40.378 1.621 41.5 3 41.5H7C8.379 41.5 9.5 40.378 9.5 39V19.5H10.5V38H11.5V19.5H17ZM7 40.5H3C2.173 40.5 1.5 39.827 1.5 39V19C1.5 18.173 2.173 17.5 3 17.5H7C7.827 17.5 8.5 18.173 8.5 19V39C8.5 39.827 7.827 40.5 7 40.5Z" fill="white"/>
<path d="M31.3545 24.646C31.1595 24.451 30.8425 24.451 30.6475 24.646L25.4775 29.816C24.1135 31.181 21.8905 31.183 20.5245 29.816L20.0645 29.356C19.8725 29.163 19.8725 28.836 20.0645 28.643L25.3545 23.353L24.6475 22.646L19.3575 27.936C18.7715 28.522 18.7715 29.477 19.3575 30.063L19.8175 30.523C21.5735 32.278 24.4285 32.278 26.1845 30.523L31.0005 25.707L44.6465 39.353C45.5535 40.261 45.5535 41.738 44.6465 42.646C43.7715 43.521 42.2285 43.521 41.3535 42.646L37.3535 38.646L36.6465 39.353L40.6465 43.353C41.5535 44.261 41.5535 45.738 40.6465 46.646C39.7715 47.521 38.2285 47.521 37.3535 46.646L33.3535 42.646L32.6465 43.353L36.6465 47.353C37.5535 48.261 37.5535 49.738 36.6465 50.646C35.7715 51.521 34.2285 51.521 33.3535 50.646L29.3535 46.646L28.6465 47.353L32.6465 51.353C33.5535 52.261 33.5535 53.738 32.6465 54.646C32.1925 55.1 31.5615 55.343 30.9305 55.32L30.8895 56.319C30.9335 56.321 30.9775 56.322 31.0205 56.322C31.8895 56.322 32.7335 55.973 33.3535 55.353C34.1965 54.51 34.4925 53.322 34.2395 52.238C35.3295 52.49 36.5455 52.161 37.3535 51.353C38.1965 50.51 38.4925 49.322 38.2395 48.238C39.3295 48.49 40.5455 48.162 41.3535 47.353C42.1965 46.51 42.4925 45.322 42.2395 44.238C43.3285 44.491 44.5455 44.162 45.3535 43.353C46.6505 42.055 46.6505 39.944 45.3535 38.646L31.3545 24.646Z" fill="white"/>
<path d="M26.2234 49.7749C26.4834 48.6869 26.1994 47.4939 25.3524 46.6459C24.5054 45.7979 23.3124 45.5149 22.2234 45.7749C22.4834 44.6869 22.1994 43.4939 21.3524 42.6459C20.5054 41.7979 19.3124 41.5149 18.2234 41.7749C18.4834 40.6869 18.1994 39.4939 17.3524 38.6459C16.0554 37.3479 13.9424 37.3479 12.6454 38.6459C11.3474 39.9439 11.3474 42.0549 12.6454 43.3529C13.2934 44.0019 14.1464 44.3259 14.9994 44.3259C15.2604 44.3259 15.5194 44.2849 15.7744 44.2239C15.5144 45.3119 15.7984 46.5049 16.6454 47.3529C17.2934 48.0019 18.1464 48.3259 18.9994 48.3259C19.2604 48.3259 19.5194 48.2849 19.7744 48.2239C19.5144 49.3119 19.7984 50.5049 20.6454 51.3529C21.2934 52.0019 22.1464 52.3259 22.9994 52.3259C23.2604 52.3259 23.5194 52.2849 23.7744 52.2239C23.5144 53.3119 23.7984 54.5049 24.6454 55.3529C25.2934 56.0019 26.1464 56.3259 26.9994 56.3259C27.8524 56.3259 28.7044 56.0019 29.3534 55.3529C30.6514 54.0549 30.6514 51.9439 29.3534 50.6459C28.5044 49.7989 27.3124 49.5149 26.2234 49.7749ZM13.3524 42.6459C12.4444 41.7379 12.4444 40.2609 13.3524 39.3529C13.8064 38.8989 14.4024 38.6719 14.9984 38.6719C15.5944 38.6719 16.1904 38.8989 16.6444 39.3529C17.5524 40.2609 17.5524 41.7379 16.6444 42.6459C15.7364 43.5549 14.2604 43.5549 13.3524 42.6459ZM17.3524 46.6459C16.4444 45.7379 16.4444 44.2609 17.3524 43.3529C17.8064 42.8989 18.4024 42.6719 18.9984 42.6719C19.5944 42.6719 20.1904 42.8989 20.6444 43.3529C21.5524 44.2609 21.5524 45.7379 20.6444 46.6459C19.7364 47.5549 18.2604 47.5549 17.3524 46.6459ZM21.3524 50.6459C20.4444 49.7379 20.4444 48.2609 21.3524 47.3529C21.8064 46.8989 22.4024 46.6719 22.9984 46.6719C23.5944 46.6719 24.1904 46.8989 24.6444 47.3529C25.5524 48.2609 25.5524 49.7379 24.6444 50.6459C23.7364 51.5549 22.2604 51.5549 21.3524 50.6459ZM28.6444 54.6459C27.7364 55.5539 26.2594 55.5539 25.3514 54.6459C24.4434 53.7379 24.4434 52.2609 25.3514 51.3529C25.8054 50.8989 26.4014 50.6719 26.9974 50.6719C27.5934 50.6719 28.1894 50.8989 28.6434 51.3529C29.5534 52.2609 29.5534 53.7389 28.6444 54.6459Z" fill="white"/>
<path d="M21 21.5H37C38.379 21.5 39.5 20.378 39.5 19V7C39.5 5.622 38.379 4.5 37 4.5H35V5.5H37C37.827 5.5 38.5 6.173 38.5 7V13C38.5 13.827 37.827 14.5 37 14.5H33V15.5H37C37.565 15.5 38.081 15.305 38.5 14.987V19C38.5 19.827 37.827 20.5 37 20.5H21C20.173 20.5 19.5 19.827 19.5 19V14.987C19.919 15.304 20.435 15.5 21 15.5H25V14.5H21C20.173 14.5 19.5 13.827 19.5 13V7C19.5 6.173 20.173 5.5 21 5.5H23V4.5H21C19.621 4.5 18.5 5.622 18.5 7V19C18.5 20.378 19.621 21.5 21 21.5Z" fill="white"/>
<path d="M25.5 2C25.5 1.724 25.725 1.5 26 1.5H32C32.275 1.5 32.5 1.724 32.5 2V5H33.5V2C33.5 1.173 32.827 0.5 32 0.5H26C25.173 0.5 24.5 1.173 24.5 2V5H25.5V2Z" fill="white"/>
<path d="M31.5 3C31.5 2.724 31.276 2.5 31 2.5H27C26.724 2.5 26.5 2.724 26.5 3V5C26.5 5.276 26.724 5.5 27 5.5H31C31.276 5.5 31.5 5.276 31.5 5V3ZM30.5 4.5H27.5V3.5H30.5V4.5Z" fill="white"/>
<path d="M30 12.5H28C27.173 12.5 26.5 13.173 26.5 14V16C26.5 16.827 27.173 17.5 28 17.5H30C30.827 17.5 31.5 16.827 31.5 16V14C31.5 13.173 30.827 12.5 30 12.5ZM30.5 16C30.5 16.276 30.275 16.5 30 16.5H28C27.725 16.5 27.5 16.276 27.5 16V14C27.5 13.724 27.725 13.5 28 13.5H30C30.275 13.5 30.5 13.724 30.5 14V16Z" fill="white"/>
</svg>
