<svg aria-hidden="true" style="position: absolute; width: 0; height: 0; overflow: hidden;" version="1.1" xmlns="http://www.w3.org/2000/svg" xmlns:xlink="http://www.w3.org/1999/xlink">
<defs>
<symbol id="icon-ad-cont-mark" viewBox="0 0 32 32">
<path d="M16.001 0c-6.518 0-11.821 5.303-11.821 11.821 0 2.146 0.962 4.454 1.003 4.551 0.311 0.738 0.924 1.884 1.366 2.555l8.105 12.281c0.332 0.503 0.823 0.792 1.347 0.792s1.015-0.289 1.347-0.791l8.106-12.281c0.443-0.672 1.056-1.818 1.366-2.555 0.040-0.097 1.002-2.405 1.002-4.551 0-6.518-5.303-11.821-11.821-11.821zM25.537 15.832c-0.277 0.661-0.848 1.727-1.245 2.329l-8.106 12.281c-0.16 0.243-0.211 0.243-0.371 0l-8.106-12.281c-0.397-0.602-0.968-1.669-1.245-2.33-0.012-0.028-0.894-2.153-0.894-4.011 0-5.751 4.679-10.43 10.43-10.43s10.43 4.679 10.43 10.43c0 1.861-0.884 3.991-0.893 4.011z"></path>
<path d="M16 5.563c-3.451 0-6.258 2.808-6.258 6.258s2.807 6.258 6.258 6.258c3.451 0 6.258-2.808 6.258-6.258s-2.807-6.258-6.258-6.258zM16 16.689c-2.683 0-4.867-2.183-4.867-4.867s2.184-4.867 4.867-4.867c2.683 0 4.867 2.183 4.867 4.867s-2.184 4.867-4.867 4.867z"></path>
</symbol>
<symbol id="icon-phone-cont-mark" viewBox="0 0 32 32">
<path d="M31.16 24.686l-6.477-4.319c-0.822-0.544-1.924-0.365-2.531 0.411l-1.887 2.426c-0.242 0.32-0.683 0.412-1.034 0.218l-0.359-0.198c-1.19-0.648-2.67-1.456-5.652-4.439s-3.791-4.465-4.44-5.652l-0.197-0.359c-0.198-0.351-0.107-0.793 0.213-1.038l2.424-1.886c0.776-0.608 0.955-1.709 0.412-2.531l-4.319-6.477c-0.557-0.837-1.673-1.089-2.535-0.571l-2.708 1.627c-0.851 0.5-1.475 1.311-1.742 2.261-0.975 3.554-0.242 9.687 8.793 18.722 7.187 7.186 12.537 9.119 16.214 9.119 0.846 0.004 1.689-0.107 2.506-0.327 0.951-0.266 1.761-0.891 2.261-1.742l1.629-2.707c0.519-0.862 0.267-1.979-0.57-2.536zM30.811 26.675l-1.625 2.709c-0.359 0.614-0.942 1.066-1.626 1.261-3.281 0.901-9.012 0.155-17.685-8.519s-9.419-14.404-8.519-17.685c0.195-0.685 0.647-1.269 1.262-1.629l2.708-1.625c0.374-0.225 0.859-0.116 1.1 0.247l4.316 6.476c0.236 0.357 0.158 0.835-0.178 1.099l-2.425 1.886c-0.738 0.564-0.949 1.585-0.494 2.395l0.193 0.35c0.682 1.25 1.529 2.805 4.622 5.898s4.648 3.94 5.897 4.622l0.35 0.193c0.81 0.454 1.831 0.244 2.395-0.494l1.886-2.425c0.264-0.336 0.742-0.414 1.099-0.178l6.476 4.319c0.364 0.241 0.473 0.726 0.247 1.1z"></path>
<path d="M18.131 5.336c5.004 0.006 9.060 4.061 9.065 9.065 0 0.295 0.239 0.533 0.533 0.533s0.533-0.239 0.533-0.533c-0.006-5.593-4.539-10.126-10.132-10.132-0.294 0-0.533 0.239-0.533 0.533s0.239 0.533 0.533 0.533z"></path>
<path d="M18.131 8.535c3.238 0.004 5.862 2.628 5.866 5.866 0 0.295 0.239 0.533 0.533 0.533s0.533-0.239 0.533-0.533c-0.005-3.827-3.106-6.928-6.932-6.932-0.294 0-0.533 0.239-0.533 0.533s0.239 0.533 0.533 0.533z"></path>
<path d="M18.131 11.735c1.472 0.002 2.665 1.194 2.666 2.666 0 0.294 0.239 0.533 0.533 0.533s0.533-0.239 0.533-0.533c-0.002-2.061-1.672-3.73-3.733-3.733-0.294 0-0.533 0.239-0.533 0.533s0.239 0.533 0.533 0.533z"></path>
</symbol>
</defs>
</svg>
