<svg aria-hidden="true" style="position: absolute; width: 0; height: 0; overflow: hidden;" version="1.1" xmlns="http://www.w3.org/2000/svg" xmlns:xlink="http://www.w3.org/1999/xlink">
<defs>
<symbol id="icon-equipment-fin" viewBox="0 0 32 32">
<path d="M3.989 26.741c0.071 0 0.142-0.024 0.2-0.073 0.131-0.11 0.148-0.306 0.037-0.438l-0.392-0.465c-0.111-0.131-0.307-0.148-0.438-0.037s-0.148 0.306-0.037 0.438l0.392 0.465c0.061 0.073 0.149 0.11 0.238 0.11z"></path>
<path d="M4.669 27.718l0.391 0.465c0.061 0.073 0.149 0.11 0.238 0.11 0.071 0 0.142-0.024 0.2-0.073 0.131-0.11 0.148-0.306 0.037-0.438l-0.392-0.465c-0.111-0.131-0.307-0.148-0.438-0.037s-0.148 0.306-0.037 0.438z"></path>
<path d="M4.992 26.827c0.071 0 0.142-0.024 0.2-0.073l0.465-0.392c0.131-0.11 0.148-0.306 0.037-0.438s-0.307-0.148-0.438-0.037l-0.465 0.392c-0.131 0.11-0.148 0.306-0.037 0.438 0.061 0.073 0.149 0.11 0.238 0.11z"></path>
<path d="M3.202 28.024c0.061 0.073 0.149 0.11 0.238 0.11 0.071 0 0.142-0.024 0.2-0.073l0.465-0.392c0.131-0.11 0.148-0.306 0.037-0.438s-0.307-0.148-0.438-0.037l-0.465 0.392c-0.131 0.11-0.148 0.306-0.037 0.438z"></path>
<path d="M27.637 26.23l-0.392-0.465c-0.111-0.131-0.306-0.148-0.438-0.037s-0.148 0.306-0.037 0.438l0.392 0.465c0.062 0.073 0.149 0.11 0.238 0.11 0.071 0 0.142-0.024 0.2-0.073 0.131-0.11 0.148-0.306 0.037-0.438z"></path>
<path d="M28.946 27.783l-0.392-0.465c-0.111-0.131-0.306-0.148-0.438-0.037s-0.148 0.306-0.037 0.438l0.392 0.465c0.062 0.073 0.149 0.11 0.238 0.11 0.071 0 0.142-0.024 0.2-0.073 0.131-0.11 0.148-0.306 0.037-0.438z"></path>
<path d="M29.105 25.924c-0.111-0.131-0.306-0.148-0.438-0.037l-0.465 0.392c-0.131 0.11-0.148 0.306-0.037 0.438 0.062 0.073 0.149 0.11 0.238 0.11 0.071 0 0.142-0.024 0.2-0.073l0.465-0.392c0.131-0.11 0.148-0.306 0.037-0.438z"></path>
<path d="M27.114 27.195l-0.465 0.392c-0.131 0.11-0.148 0.306-0.037 0.438 0.062 0.073 0.149 0.11 0.238 0.11 0.070 0 0.142-0.024 0.2-0.073l0.465-0.392c0.131-0.11 0.148-0.306 0.037-0.438s-0.306-0.148-0.438-0.037z"></path>
<path d="M30.725 29.247h-1.688c-0.172 0-0.311 0.139-0.311 0.311s0.139 0.311 0.311 0.311h1.688c0.172 0 0.311-0.139 0.311-0.311s-0.139-0.311-0.311-0.311z"></path>
<path d="M1.277 29.869h0.956c0.172 0 0.311-0.139 0.311-0.311s-0.139-0.311-0.311-0.311h-0.956c-0.172 0-0.311 0.139-0.311 0.311s0.139 0.311 0.311 0.311z"></path>
<path d="M22.824 11.395l-1.125-0.105c-0.145-0.543-0.366-1.061-0.659-1.539l0.729-0.903c0.191-0.237 0.173-0.578-0.042-0.793l-1.050-1.052c-0.216-0.216-0.557-0.234-0.794-0.042l-0.913 0.758c-0.475-0.279-0.987-0.488-1.505-0.597l-0.128-1.216c-0.032-0.303-0.286-0.532-0.591-0.532h-1.486c-0.304 0-0.558 0.228-0.591 0.531l-0.128 1.196c-0.527 0.133-1.034 0.342-1.477 0.624l-0.944-0.763c-0.237-0.192-0.579-0.175-0.794 0.042l-1.050 1.052c-0.215 0.215-0.233 0.556-0.042 0.794l0.719 0.89c-0.332 0.495-0.536 1.115-0.626 1.535l-1.148 0.122c-0.303 0.032-0.532 0.286-0.532 0.591v1.486c0 0.305 0.228 0.559 0.532 0.591l1.079 0.099c0.134 0.576 0.355 1.126 0.659 1.605l-0.682 0.842c-0.193 0.237-0.175 0.579 0.041 0.795l1.049 1.050c0.216 0.215 0.557 0.233 0.794 0.041l0.787-0.656c0.515 0.32 1.077 0.557 1.653 0.68l0.109 1.032c0.032 0.303 0.286 0.532 0.591 0.532h1.485c0.305 0 0.559-0.229 0.591-0.532l0.092-1.009c0.59-0.145 1.151-0.381 1.638-0.707l0.816 0.661c0.237 0.192 0.578 0.174 0.794-0.041l1.049-1.049c0.216-0.216 0.234-0.558 0.042-0.794l-0.677-0.813c0.297-0.504 0.516-1.049 0.651-1.619l1.082-0.115c0.303-0.032 0.532-0.286 0.532-0.591v-1.486c0-0.305-0.229-0.559-0.532-0.591zM22.734 13.447l-1.079 0.114c-0.25 0.026-0.457 0.211-0.515 0.459-0.12 0.515-0.317 1.006-0.585 1.46-0.128 0.217-0.11 0.483 0.047 0.677l0.667 0.823-1.015 1.015-0.798-0.646c-0.195-0.159-0.472-0.175-0.689-0.040-0.461 0.287-0.962 0.498-1.487 0.627-0.244 0.060-0.427 0.266-0.453 0.514l-0.107 1.009h-1.437l-0.107-1.008c-0.026-0.246-0.207-0.453-0.451-0.513-0.53-0.132-1.033-0.343-1.492-0.629-0.216-0.134-0.493-0.118-0.689 0.040l-0.798 0.646-1.015-1.015 0.667-0.823c0.157-0.194 0.176-0.46 0.048-0.677-0.268-0.454-0.465-0.946-0.585-1.461-0.058-0.248-0.265-0.432-0.515-0.458l-1.079-0.114v-1.437l1.124-0.12c0.244-0.026 0.45-0.205 0.512-0.445 0.144-0.558 0.349-1.048 0.576-1.379 0.145-0.211 0.131-0.501-0.034-0.705l-0.715-0.884 1.015-1.018 0.925 0.748c0.193 0.156 0.458 0.174 0.674 0.048 0.427-0.25 0.884-0.437 1.359-0.556 0.243-0.060 0.423-0.266 0.45-0.512l0.127-1.193h1.437l0.125 1.192c0.026 0.245 0.206 0.452 0.449 0.512 0.478 0.12 0.935 0.306 1.359 0.556 0.217 0.126 0.482 0.108 0.675-0.048l0.925-0.748 1.015 1.018-0.728 0.9c-0.157 0.195-0.173 0.47-0.041 0.685 0.265 0.431 0.466 0.898 0.596 1.388 0.064 0.241 0.264 0.414 0.509 0.44l1.127 0.12v1.437z"></path>
<path d="M16.004 11.298c0.382 0 0.694 0.251 0.694 0.56 0 0.172 0.139 0.311 0.311 0.311s0.311-0.139 0.311-0.311c0-0.555-0.429-1.018-1.004-1.144v-0.294c0-0.172-0.139-0.311-0.311-0.311s-0.311 0.139-0.311 0.311v0.293c-0.576 0.126-1.006 0.589-1.006 1.144 0 0.65 0.591 1.18 1.316 1.18 0.382 0 0.694 0.251 0.694 0.56s-0.311 0.559-0.694 0.559c-0.383 0-0.695-0.251-0.695-0.559 0-0.172-0.139-0.311-0.311-0.311s-0.311 0.139-0.311 0.311c0 0.554 0.43 1.017 1.006 1.143v0.293c0 0.172 0.139 0.311 0.311 0.311s0.311-0.139 0.311-0.311v-0.294c0.575-0.126 1.004-0.589 1.004-1.143 0-0.651-0.59-1.181-1.315-1.181-0.383 0-0.695-0.251-0.695-0.559s0.312-0.56 0.695-0.56z"></path>
<path d="M16.002 8.655c-2.245 0-4.072 1.827-4.072 4.072s1.827 4.070 4.072 4.070 4.072-1.826 4.072-4.070c0-2.245-1.827-4.072-4.072-4.072zM16.002 16.177c-1.903 0-3.451-1.547-3.451-3.449 0-1.903 1.548-3.451 3.451-3.451s3.451 1.548 3.451 3.451c0 1.902-1.548 3.449-3.451 3.449z"></path>
<path d="M30.67 23.221c0-4.712 0-14.164 0-19.296 0-0.989-0.805-1.793-1.794-1.793h-25.748c-0.989 0-1.794 0.805-1.794 1.793v19.296c0 0.989 0.805 1.794 1.794 1.794h10.16l-0.466 2.447h-0.422c-1.041 0-1.917 0.76-2.068 1.786h-6.892c-0.172 0-0.311 0.139-0.311 0.311s0.139 0.311 0.311 0.311h24.526c0.172 0 0.311-0.139 0.311-0.311s-0.139-0.311-0.311-0.311h-6.094c-0.151-1.009-1.021-1.786-2.071-1.786h-0.56l-0.465-2.447h10.101c0.989 0 1.794-0.805 1.794-1.794zM19.802 28.083c0.707 0 1.299 0.5 1.442 1.165h-10.283c0.141-0.664 0.729-1.165 1.439-1.165 0.029 0 6.971 0 7.402 0zM13.454 27.461l0.466-2.446h4.223l0.465 2.446h-5.154zM30.048 23.221c0 0.647-0.526 1.172-1.172 1.172h-25.748c-0.646 0-1.172-0.526-1.172-1.172v-1.945h28.093v1.945zM4.003 20.654v-15.854h23.998v15.854h-23.998zM30.048 20.654h-1.426v-16.165c0-0.172-0.139-0.311-0.311-0.311h-24.619c-0.172 0-0.311 0.139-0.311 0.311v16.165h-1.426v-16.729c0-0.646 0.526-1.172 1.172-1.172h25.748c0.647 0 1.172 0.526 1.172 1.172v16.729z"></path>
<path d="M13.104 23.961c0.621 0 1.127-0.505 1.127-1.127s-0.505-1.127-1.127-1.127c-0.623 0-1.129 0.505-1.129 1.127s0.507 1.127 1.129 1.127zM13.104 22.329c0.279 0 0.505 0.227 0.505 0.506s-0.227 0.505-0.505 0.505c-0.28 0-0.508-0.227-0.508-0.505s0.228-0.506 0.508-0.506z"></path>
<path d="M16.002 23.961c0.621 0 1.127-0.505 1.127-1.127s-0.505-1.127-1.127-1.127c-0.623 0-1.129 0.505-1.129 1.127s0.506 1.127 1.129 1.127zM16.002 22.329c0.279 0 0.505 0.227 0.505 0.506s-0.227 0.505-0.505 0.505c-0.28 0-0.508-0.227-0.508-0.505s0.228-0.506 0.508-0.506z"></path>
<path d="M18.9 23.961c0.621 0 1.127-0.505 1.127-1.127s-0.505-1.127-1.127-1.127c-0.623 0-1.129 0.505-1.129 1.127s0.506 1.127 1.129 1.127zM18.9 22.329c0.279 0 0.505 0.227 0.505 0.506s-0.227 0.505-0.505 0.505c-0.28 0-0.508-0.227-0.508-0.505s0.228-0.506 0.508-0.506z"></path>
</symbol>
<symbol id="icon-equip-rest" viewBox="0 0 32 32">
<path d="M30.491 9.388c-0-0.108-0.058-0.207-0.151-0.261l-10.252-5.917c-0.094-0.054-0.209-0.054-0.302 0l-1.785 1.036c-1.426-0.235-2.815-0.218-4.255 0.043l-1.863-1.079c-0.096-0.055-0.216-0.054-0.31 0.005l-9.92 6.152c-0.090 0.056-0.144 0.155-0.143 0.261s0.059 0.203 0.15 0.257l3.657 2.124-3.656 2.125c-0.093 0.054-0.15 0.154-0.15 0.261s0.058 0.207 0.151 0.261l3.941 2.275-0.018 5.872c-0 0.108 0.057 0.208 0.151 0.262l9.914 5.724c0.092 0.053 0.207 0.054 0.302 0-0.061 0.035 4.289-2.492 10.253-5.96 0.093-0.054 0.15-0.153 0.15-0.26l0.018-5.84 3.968-2.306c0.093-0.054 0.15-0.153 0.15-0.261s-0.057-0.207-0.15-0.261l-3.654-2.124 3.654-2.128c0.093-0.054 0.15-0.154 0.15-0.261zM10.786 11.755c1.449 0.836 3.348 1.254 5.244 1.254 2.421 0 5.475-0.752 6.859-2.667-0.001 0.124-0.003 0.489-0.003 0.496-0.047 1.194-0.925 2.050-1.949 2.646-1.389 0.86-3.449 1.191-5.075 1.174-1.898-0.028-4.090-0.515-5.544-1.71-0.348-0.287-0.618-0.569-0.851-0.966-0.282-0.47-0.37-0.936-0.355-1.489l0.001-0.19c0.020 0.028 0.046 0.054 0.066 0.081 0.383 0.507 0.919 0.971 1.608 1.369zM8.507 10.759c0.004 1.52 0.006 2.313 0.006 2.4l-2.008-1.159c0.063-0.039 2.131-1.321 2.001-1.241zM9.117 13.507v-0.94c0.204 0.283 0.505 0.6 0.869 0.891 1.553 1.247 3.873 1.779 5.847 1.806 1.766 0.022 3.865-0.352 5.425-1.259 0.73-0.424 1.32-0.979 1.637-1.419v0.696l-7.058 4.102-6.72-3.877zM25.48 11.779l-1.982 1.152c-0-0.131-0.005-2.39-0.005-2.301 0.072 0.041 2.099 1.214 1.987 1.149zM20.927 5.868c1.268 0.734 1.966 1.689 1.968 2.692 0.004 3.238-7.219 5.319-11.806 2.67-1.030-0.594-1.971-1.523-1.971-2.697 0.001-0.994 0.689-1.941 1.938-2.668 2.454-1.425 6.573-1.721 9.871 0.002zM11.737 3.824l1.065 0.617c-0.91 0.262-1.537 0.544-2.048 0.847-1.472 0.852-2.266 2.003-2.239 3.233-0 0.002-0.001 0.004-0.001 0.006-0 0.061-0.005 1.62-0.005 1.521l-2.596 1.61-3.514-2.042 9.339-5.792zM5.918 12.358l9.314 5.377-3.501 2.034c-0.955-0.551 3.454 1.993-9.316-5.375l3.503-2.036zM6.206 17.279l5.373 3.102c0.093 0.053 0.208 0.055 0.303-0.001l3.652-2.122-0.002 0.592-0.031 9.156-9.311-5.376 0.016-5.351zM25.752 22.395l-9.647 5.608c0.027-8.161 0.005-1.455 0.033-9.743l3.65 2.121c0.095 0.055 0.211 0.054 0.304 0l5.677-3.3-0.016 5.314zM19.937 19.769l-3.499-2.036 9.648-5.606 3.502 2.035c-13.226 7.683-8.66 5.030-9.651 5.606zM26.083 11.431c-0.085-0.049-2.685-1.553-2.589-1.497l0.001-0.191 0.005-1.169c0.028-1.256-0.781-2.424-2.287-3.293-0.858-0.451-1.533-0.72-2.249-0.896l0.974-0.565 9.65 5.569-3.504 2.041z"></path>
<path d="M13.016 7.221l0.502 0.226c-0.106 0.148-0.166 0.311-0.166 0.481-0.001 0.32 0.2 0.62 0.55 0.823 0.63 0.366 1.621 0.367 2.256 0.001 0.448-0.258 1.202-0.259 1.646-0.001 0.158 0.092 0.253 0.206 0.253 0.303s-0.096 0.213-0.256 0.305c-0.449 0.259-1.205 0.259-1.651 0.001-0.144-0.084-0.328-0.035-0.412 0.109s-0.035 0.329 0.109 0.412c0.315 0.183 0.721 0.275 1.127 0.275 0.344 0 0.684-0.070 0.975-0.201l0.797 0.358c0.040 0.018 0.082 0.027 0.123 0.027 0.115 0 0.226-0.066 0.276-0.178 0.068-0.152 0-0.331-0.152-0.399l-0.501-0.225c0.107-0.148 0.168-0.312 0.168-0.483 0.001-0.32-0.201-0.621-0.553-0.826-0.63-0.366-1.618-0.366-2.251-0.001-0.449 0.259-1.205 0.26-1.651 0.001-0.156-0.091-0.249-0.203-0.249-0.301 0-0.099 0.096-0.214 0.257-0.307 0.448-0.259 1.202-0.258 1.646-0.001 0.144 0.084 0.329 0.035 0.413-0.109s0.035-0.329-0.109-0.413c-0.583-0.339-1.472-0.359-2.103-0.071l-0.797-0.358c-0.151-0.067-0.33-0-0.399 0.152s-0 0.33 0.152 0.399z"></path>
</symbol>
<symbol id="icon-line-of-credit" viewBox="0 0 32 32">
<path d="M30.341 9.555l-3.463-2.013c-0.028-0.016-0.058-0.028-0.090-0.034l-4.744-1c-0.171-0.036-0.364 0.092-0.364 0.295 0 0.001-0 0.001-0 0.001l0.006 1.957-3.15 1.821-1.27-0.742c-0.86-0.498-1.983-0.399-3.165 0.278-1.702 0.988-3.235 3.086-3.855 5.25l-1.869 1.076-1.69-0.982c-0.134-0.078-0.305-0.042-0.396 0.083l-1.18 1.615c-0.098 0.135-0.069 0.323 0.066 0.422s0.323 0.069 0.422-0.066l1.019-1.395c0.061 0.035 3.127 1.818 2.936 1.706-1.8 2.472-2.406 3.296-4.363 5.977l-2.938-1.708 1.94-2.656c0.098-0.135 0.069-0.323-0.066-0.422s-0.323-0.069-0.422 0.066l-2.138 2.927c-0.106 0.145-0.062 0.35 0.092 0.439l3.463 2.013c0.081 0.047 0.905 0.197 4.835 1.030 0.185 0.040 0.364-0.103 0.364-0.296l-0.006-1.956 3.15-1.819c0.797 0.454 1.33 0.805 1.66 0.919 2.561 0.889 5.721-2.538 6.627-5.7l1.868-1.081 1.694 0.981c0.133 0.077 0.318 0.019 0.394-0.084l4.728-6.46c0.101-0.139 0.052-0.355-0.095-0.44zM22.289 8.762l-0.004-1.434c0.072 0.042 3.040 1.767 2.859 1.661l0.004 1.436-2.858-1.663zM26.616 8.089l1.796 1.044-2.861-0.604-1.794-1.042 2.858 0.603zM21.984 9.286c0.061 0.036 3.047 1.771 2.865 1.666-0.061 0.035-3.427 1.974-3.224 1.858-0.184-0.342-0.454-0.652-0.771-0.866-0.109-0.074-0.682-0.405-1.715-1.013l2.845-1.645zM14.402 10.64c0.986-0.565 1.895-0.663 2.56-0.279l2.085 1.218c-2.383 0.376-4.534 3.241-5.266 5.548l-2.929-1.7c0.597-1.985 2.004-3.889 3.551-4.787zM8.98 16.792l1.516-0.872 2.863 1.661-3.054 1.765-0.005-1.613c0-0.088-0.049-0.202-0.15-0.26-0.061-0.036-1.246-0.725-1.17-0.681zM9.862 22.804c-0.094 0.054-0.151 0.154-0.151 0.262l0.005 1.758-3.922-0.823c1.593-2.181 2.351-3.218 3.905-5.346 0.001 0.125-0.002-0.452 0.005 1.22 0.004 0.25 0.264 0.363 0.451 0.255l3.362-1.941c-0.176 1.002-0.107 1.805 0.077 2.421 0.003 0.011 0.004 0.024 0.008 0.035l-3.74 2.159zM15.324 21.769c-1.552-0.538-1.47-2.841-0.958-4.457 0.71-2.232 2.905-5.143 5.142-5.153 0.825-0.002 1.407 0.448 1.704 1.188-0-0 0 0 0 0s0 0.001 0 0.001c0.363 0.9 0.25 2.078-0 3.006-0.852 3.169-3.863 6.119-5.887 5.415zM21.86 13.37l3.743-2.157c0.105-0.060 0.151-0.196 0.151-0.261 0-0-0-0.001-0-0.001 0-0.061-0.005-1.824-0.005-1.764l3.923 0.827-3.908 5.34-0.003-1.209c-0.001-0.237-0.27-0.368-0.455-0.262-0.072 0.042-3.513 2.033-3.362 1.945 0.133-0.771 0.154-1.699-0.085-2.46zM25.158 14.669l0.003 1.084-0.938-0.543 0.935-0.541z"></path>
<path d="M4.544 17.937l-0.304 0.416c-0.098 0.134-0.069 0.323 0.066 0.422 0.134 0.098 0.323 0.070 0.422-0.066l0.304-0.416c0.098-0.135 0.069-0.323-0.066-0.422s-0.324-0.069-0.422 0.066z"></path>
<path d="M17.582 16.744c-0.106 0.062-0.187 0.071-0.219 0.052s-0.064-0.090-0.064-0.211c-0.001-0.356 0.27-0.825 0.58-1.004 0.105-0.061 0.185-0.070 0.217-0.051s0.064 0.091 0.064 0.211c0 0.167 0.133 0.311 0.303 0.301 0.167-0 0.301-0.136 0.301-0.303-0.001-0.332-0.134-0.599-0.366-0.733-0.11-0.064-0.235-0.090-0.367-0.085v-0.383c0-0.167-0.135-0.302-0.302-0.302s-0.302 0.135-0.302 0.302v0.624c-0.421 0.324-0.732 0.914-0.731 1.424 0.003 0.696 0.579 1.031 1.189 0.68 0.106-0.062 0.185-0.071 0.217-0.051 0.032 0.018 0.064 0.090 0.064 0.211 0.001 0.355-0.269 0.822-0.578 1-0.107 0.063-0.188 0.070-0.22 0.052s-0.063-0.089-0.063-0.208c-0.001-0.167-0.136-0.301-0.302-0.301-0 0-0.001 0-0.001 0-0.167 0.001-0.302 0.136-0.301 0.303 0.002 0.523 0.324 0.818 0.706 0.818 0.006 0 0.014-0.003 0.020-0.003v0.388c0 0.167 0.135 0.302 0.302 0.302s0.302-0.135 0.302-0.302v-0.624c0.425-0.322 0.74-0.914 0.738-1.427-0.002-0.699-0.582-1.030-1.187-0.681z"></path>
</symbol>
<symbol id="icon-payment" viewBox="0 0 32 32">
<path d="M26.132 20.17l-0.015-5.18c-0-0.124-0.090-0.225-0.15-0.26l-0.001-0c-0-0-0-0-0-0.001s-0-0-0.001-0l-2.29-1.331c-0.094-0.055-0.209-0.054-0.303-0.001l-1.268 0.732-0.005-1.146c-0-0.107-0.058-0.206-0.15-0.259s-0.207-0.056-0.299-0.003l-5.27 2.951-0.005-1.818c0.296-0.1 0.598-0.232 0.905-0.409 2.357-1.361 4.268-4.672 4.26-7.38-0.004-1.373-0.487-2.406-1.361-2.909-0.002-0.001-0.005-0.002-0.007-0.003l-2.278-1.326c-0.881-0.509-2.030-0.407-3.233 0.288-0.542 0.312-1.068 0.728-1.564 1.238-0.116 0.119-0.114 0.311 0.005 0.427s0.311 0.115 0.427-0.005c0.458-0.47 0.94-0.852 1.434-1.136 1.009-0.582 1.943-0.685 2.629-0.289l0.903 0.526c-0.511 0.078-1.104 0.319-1.543 0.573-1.327 0.766-2.512 2.149-3.294 3.695-0.552 1.090-0.972 2.443-0.969 3.687 0.001 0.449 0.068 1.021 0.255 1.528 0.005 0.015 0.007 0.033 0.013 0.047l-0.904-0.524c-0.675-0.395-1.050-1.241-1.054-2.383-0.002-0.918 0.235-1.943 0.685-2.964 0.067-0.152-0.002-0.331-0.154-0.398s-0.331 0.002-0.398 0.154c-0.484 1.097-0.739 2.207-0.737 3.209 0.005 1.365 0.486 2.396 1.354 2.903l2.277 1.319c0.008 0.005 0.015 0.011 0.023 0.016 0.528 0.304 1.118 0.373 1.723 0.274l0.006 1.998-6.086 3.408c-0.096 0.053-0.155 0.155-0.155 0.264l0.006 1.698-3.526 2.036c-0.094 0.055-0.151 0.155-0.151 0.261 0 0 0 0 0 0.001 0 0.063 0.014 5.242 0.015 5.181 0 0.107 0.057 0.206 0.15 0.26 0.061 0.035 2.353 1.368 2.292 1.332 0 0 0 0.001 0.001 0.001 0.092 0.053 0.207 0.054 0.302-0l5.742-3.315c0.094-0.054 0.151-0.154 0.151-0.262l-0.014-5.18c-0-0.11-0.061-0.209-0.151-0.261-0.204-0.118-2.353-1.366-2.291-1.331-0.093-0.055-0.209-0.055-0.303-0.001l-1.614 0.932-0.004-1.175 11.357-6.36 0.004 0.979-3.872 2.236c-0.107 0.062-0.151 0.2-0.151 0.261 0 0 0 0 0 0.001 0 0.063 0.014 5.242 0.015 5.181 0 0.107 0.058 0.206 0.15 0.26 0.061 0.035 2.353 1.368 2.292 1.332 0 0 0 0.001 0.001 0.001 0.047 0.027 0.099 0.040 0.151 0.040s0.104-0.014 0.151-0.040l5.742-3.315c0.094-0.054 0.151-0.154 0.151-0.262zM14.354 13.216c-0.003-0.002-0.005-0.005-0.008-0.007l-0.009-0.006c-0.788-0.46-1.040-1.463-1.043-2.378-0.009-2.476 1.739-5.571 3.961-6.855 0.802-0.464 1.819-0.75 2.617-0.294 0.002 0.001 0.005 0.002 0.007 0.003l0.003 0.002c-0-0 0 0 0 0l0.001 0c-0-0 0 0 0 0 0.677 0.392 1.051 1.238 1.055 2.384 0.007 2.516-1.768 5.591-3.958 6.856-1.008 0.582-1.939 0.686-2.625 0.293zM6.485 28.684l-0.013-4.481 1.687 0.98c0 0.132 0.013 4.542 0.012 4.481l-1.687-0.981zM8.776 29.668c-0-0.105-0.013-4.638-0.012-4.484 0.121-0.070 5.478-3.163 5.139-2.967l0.012 4.484-5.139 2.967zM11.911 20.711l1.69 0.982-5.14 2.967-1.69-0.982 2.775-1.602 0.003 0.816c0.001 0.166 0.136 0.301 0.302 0.301h0.001c0.167-0.001 0.301-0.136 0.301-0.303l-0.004-1.162 1.762-1.017zM21.505 15.172l0.003 0.811c0.001 0.166 0.136 0.301 0.302 0.301h0.001c0.167-0.001 0.301-0.137 0.301-0.303l-0.005-1.157 1.415-0.817 1.69 0.982-5.14 2.967c-0.079-0.046-1.771-1.029-1.69-0.982l3.122-1.803zM18.085 17.499l1.687 0.98 0.013 4.481-1.687-0.981-0.013-4.481zM20.388 22.964l-0.013-4.484c0.121-0.070 5.478-3.163 5.139-2.967l0.013 4.484-5.139 2.967z"></path>
<path d="M12.288 5.381c0.161-0.262 0.335-0.518 0.517-0.76 0.1-0.133 0.074-0.323-0.060-0.423s-0.323-0.073-0.423 0.060c-0.194 0.257-0.379 0.529-0.549 0.808-0.087 0.142-0.042 0.328 0.1 0.415 0.144 0.088 0.329 0.041 0.415-0.1z"></path>
<path d="M17.412 10.972v-0.641c0.434-0.327 0.757-0.932 0.755-1.456-0.001-0.337-0.136-0.608-0.371-0.744-0.236-0.136-0.539-0.116-0.832 0.053-0.111 0.065-0.196 0.073-0.231 0.053s-0.068-0.095-0.069-0.221c-0.001-0.366 0.278-0.848 0.597-1.032 0.111-0.064 0.194-0.071 0.229-0.052s0.068 0.096 0.069 0.222c0.001 0.167 0.165 0.299 0.303 0.301 0.167-0.001 0.302-0.136 0.301-0.303-0.001-0.337-0.137-0.608-0.371-0.743-0.113-0.066-0.243-0.093-0.379-0.087v-0.397c0-0.167-0.135-0.302-0.302-0.302s-0.302 0.135-0.302 0.302v0.641c-0.431 0.329-0.749 0.931-0.748 1.453 0.001 0.337 0.137 0.608 0.371 0.743s0.54 0.116 0.834-0.054c0.11-0.064 0.194-0.072 0.229-0.053s0.068 0.096 0.069 0.222c0.001 0.365-0.277 0.845-0.594 1.029-0.112 0.065-0.198 0.073-0.231 0.053s-0.068-0.094-0.068-0.219c-0.001-0.167-0.112-0.289-0.303-0.301-0.167 0-0.301 0.136-0.301 0.303 0.001 0.335 0.136 0.606 0.371 0.741 0.104 0.060 0.221 0.090 0.345 0.090 0.009 0 0.018-0.004 0.027-0.004v0.405c0 0.167 0.135 0.302 0.302 0.302s0.302-0.135 0.302-0.302z"></path>
</symbol>
<symbol id="icon-same-day" viewBox="0 0 32 32">
<path d="M2.334 27.025c0 0.558 0.204 0.986 0.575 1.204 5.401 3.134 3.034 1.762 3.657 2.123 0.423 0.245 0.921 0.141 1.346-0.105l9.591-5.539c-0.006 0.121-0.015 0.243-0.015 0.363 0.007 1.573 0.557 2.757 1.551 3.337l2.047 1.165c0.002 0.001 0.004 0.001 0.006 0.002 0.001 0.001 0.002 0.001 0.003 0.002 0.419 0.241 0.892 0.361 1.4 0.361 0.711 0 1.493-0.235 2.298-0.699 2.721-1.571 4.928-5.398 4.919-8.53-0.004-1.574-0.557-2.757-1.556-3.332-0.004-0.002-0.009-0.004-0.013-0.006-0.008-0.004-0.015-0.009-0.023-0.013l-2.003-1.139c-0.976-0.568-2.242-0.469-3.577 0.265l-0.035-11.513c-0.003-0.54-0.201-0.951-0.551-1.172-0.084-0.067 0.123 0.069-3.684-2.146-0.37-0.218-0.86-0.183-1.346 0.097l-1.521 0.878c-0.144 0.083-0.194 0.268-0.111 0.412s0.268 0.193 0.412 0.111l1.521-0.878c0.291-0.168 0.56-0.205 0.739-0.099l2.779 1.612c-0.126 0.059-12.098 6.977-13.038 7.517-0.063-0.036-3.246-1.886-3.049-1.772l8.546-4.934c0.144-0.083 0.194-0.268 0.111-0.412s-0.269-0.194-0.412-0.111l-8.997 5.195c-0 0-0.001 0-0.001 0-0.905 0.523-1.612 1.745-1.614 2.788-0 0.003-0.002 0.006-0.002 0.009l0.047 14.963zM3.213 27.707c-0.178-0.105-0.276-0.347-0.276-0.683l-0.045-14.436c0.061 0.035 3.247 1.887 3.045 1.77l0.017 5.172 0.027 9.623c0.001 0.057 0.003 0.112 0.008 0.166l-2.776-1.611zM7.61 29.724c-0.636 0.369-1.020 0.089-1.020-0.578l-0.032-9.762-0.014-5.197c0-0.001 0.001-0.001 0.001-0.002-0.002-0.767 0.535-1.755 1.226-2.213 0.143-0.095 13.052-7.544 13.176-7.61 0.6-0.309 0.951-0.028 0.955 0.61l0.036 11.879c-2.194 1.51-3.966 4.435-4.362 7.118l-9.965 5.754zM29.109 20.71c0.008 2.94-2.063 6.531-4.617 8.005-1.185 0.685-2.285 0.804-3.095 0.338-0.947-0.545-1.252-1.736-1.255-2.819-0.004-1.6 0.613-3.392 1.587-4.932 0.923-1.46 2.050-2.497 3.035-3.066 2.473-1.428 4.338-0.298 4.346 2.474zM25.816 16.741l0.526 0.299c-0.633 0.077-1.45 0.359-2.328 0.957-1.037 0.708-1.942 1.706-2.631 2.741-1.128 1.693-1.851 3.708-1.847 5.497 0.003 0.803 0.161 1.488 0.374 1.973l-0.569-0.324c-0.799-0.466-1.243-1.467-1.248-2.816-0.006-2.934 2.067-6.522 4.623-7.998 0.956-0.553 2.143-0.888 3.101-0.33zM4.062 9.881c0.064 0.037 3.286 1.911 3.090 1.797-0.577 0.498-1.030 1.314-1.163 2.011-0.061-0.035-3.295-1.916-3.089-1.796 0.067-0.732 0.56-1.585 1.162-2.012z"></path>
<path d="M14.117 4.067l0.731-0.422c0.144-0.083 0.194-0.268 0.111-0.412s-0.269-0.194-0.412-0.111l-0.731 0.422c-0.144 0.083-0.194 0.268-0.111 0.412s0.269 0.194 0.412 0.111z"></path>
<path d="M18.374 19.753c1.319-2.196 2.158-4.697 2.151-6.894-0.007-2.608-1.144-4.165-3.040-4.165-0.83 0-1.787 0.299-2.767 0.864-3.696 2.134-6.771 7.531-6.759 11.697 0.007 2.611 1.145 4.17 3.044 4.17 0.831 0 1.789-0.299 2.769-0.865 1.747-1.009 3.358-2.753 4.57-4.756 0.006-0.009 0.016-0.012 0.022-0.022s0.005-0.020 0.010-0.030zM14.13 23.616l-0.003-0.892c-0.001-0.167-0.136-0.301-0.302-0.301-0 0-0.001 0-0.001 0-0.167 0.001-0.302 0.136-0.301 0.303l0.004 1.275c-0.019 0.011-0.038 0.025-0.057 0.036-0.889 0.513-1.742 0.785-2.468 0.785-0.246 0-0.469-0.047-0.682-0.115l0.675-1.175c0.083-0.145 0.033-0.329-0.111-0.412s-0.33-0.034-0.412 0.111l-0.692 1.205c-0.77-0.542-1.214-1.641-1.218-3.182-0-0.146 0.011-0.296 0.019-0.444l1.072-0.619c0.144-0.083 0.194-0.268 0.111-0.412s-0.269-0.194-0.412-0.111l-0.705 0.407c0.192-1.518 0.739-3.121 1.533-4.622l0.607 0.346c0.145 0.082 0.329 0.032 0.412-0.113s0.032-0.329-0.113-0.412l-0.618-0.352c1.006-1.743 2.337-3.298 3.799-4.348l0.003 0.897c0.001 0.167 0.136 0.301 0.302 0.301h0.001c0.167-0.001 0.302-0.136 0.301-0.303l-0.004-1.292c0.050-0.031 0.1-0.067 0.151-0.096 0.888-0.513 1.74-0.784 2.465-0.784 0.338 0 0.641 0.076 0.915 0.203l-0.709 1.235c-0.083 0.145-0.033 0.329 0.111 0.412s0.33 0.033 0.412-0.111l0.694-1.209c0.646 0.584 1.009 1.63 1.013 3.034 0.001 0.236-0.011 0.476-0.030 0.719l-1.141 0.659c-0.145 0.083-0.194 0.268-0.111 0.412s0.269 0.194 0.412 0.111l0.75-0.433c-0.251 1.625-0.896 3.337-1.802 4.9l-0.619-0.353c-0.146-0.082-0.33-0.032-0.412 0.113s-0.032 0.329 0.113 0.412l0.602 0.343c-0.981 1.557-2.211 2.933-3.554 3.873z"></path>
<path d="M16.315 13.54c-0.14-0.089-0.327-0.048-0.417 0.093l-1.235 1.938c-0.193-0.022-0.405 0.020-0.614 0.142-0.55 0.318-0.98 1.063-0.979 1.695 0.001 0.361 0.145 0.65 0.395 0.794 0.11 0.063 0.234 0.095 0.366 0.095 0.024 0 0.049-0.009 0.072-0.011v3.189c0 0.167 0.135 0.302 0.302 0.302s0.302-0.135 0.302-0.302v-3.436c0.475-0.357 0.829-1.018 0.827-1.591-0.001-0.22-0.060-0.408-0.158-0.558l1.231-1.932c0.089-0.141 0.048-0.327-0.093-0.417zM14.054 17.619c-0.12 0.069-0.231 0.092-0.288 0.058-0.057-0.032-0.092-0.137-0.092-0.273-0.001-0.415 0.315-0.961 0.677-1.17 0.118-0.069 0.226-0.090 0.284-0.059-0-0 0 0 0 0 0.001 0.001 0.003 0.001 0.004 0.002 0.056 0.033 0.091 0.136 0.091 0.271 0.001 0.422-0.308 0.958-0.676 1.171z"></path>
<path d="M24.32 24.933l-1.316 0.684 1.16-2.427c0.31-0.616 0.142-0.989 0.013-1.156-0.208-0.272-0.578-0.383-0.989-0.299-0.493 0.102-1.095 0.508-1.307 1.345-0.041 0.162 0.057 0.326 0.219 0.367 0.16 0.040 0.326-0.057 0.367-0.219 0.143-0.567 0.544-0.84 0.843-0.902 0.173-0.036 0.326-0.007 0.388 0.074 0.071 0.093 0.044 0.286-0.076 0.523l-1.552 3.246c-0.056 0.117-0.031 0.257 0.063 0.347 0.095 0.091 0.235 0.11 0.349 0.051l2.117-1.1c0.148-0.077 0.206-0.259 0.129-0.407s-0.259-0.205-0.407-0.129z"></path>
<path d="M26.931 22.761l-0.164 0.089v-2.2c0-0.141-0.097-0.263-0.234-0.294-0.139-0.033-0.278 0.036-0.339 0.162l-1.788 3.68c-0.057 0.118-0.032 0.259 0.063 0.35s0.237 0.11 0.353 0.047l1.342-0.73v0.774c0 0.167 0.135 0.302 0.302 0.302s0.302-0.135 0.302-0.302v-1.103l0.453-0.246c0.146-0.080 0.201-0.263 0.121-0.41s-0.264-0.2-0.41-0.121zM26.163 23.179l-0.803 0.437 0.803-1.653v1.216z"></path>
</symbol>
<symbol id="icon-term-loans" viewBox="0 0 32 32">
<path d="M3.33 14.851c-0.168 0.477-0.32 0.96-0.452 1.434-0.046 0.164 0.050 0.333 0.214 0.379 0.167 0.045 0.334-0.053 0.379-0.214 0.128-0.461 0.276-0.93 0.44-1.394 0.057-0.16-0.028-0.336-0.188-0.393-0.158-0.054-0.336 0.028-0.392 0.188z"></path>
<path d="M19.050 11.984c-0.142-0.090-0.333-0.050-0.425 0.094l-1.821 2.857c-0.271-0.057-0.579 0.005-0.891 0.185-0.758 0.438-1.35 1.464-1.349 2.335 0.003 0.75 0.461 1.274 1.203 1.122v4.747c0 0.17 0.138 0.308 0.308 0.308s0.308-0.138 0.308-0.308v-5.024c0.681-0.48 1.196-1.418 1.193-2.229-0.001-0.332-0.092-0.604-0.251-0.806l1.82-2.856c0.091-0.143 0.049-0.334-0.094-0.425zM15.921 17.873c-0.455 0.261-0.74 0.102-0.741-0.419-0.002-0.649 0.475-1.474 1.041-1.8 0.468-0.271 0.738-0.083 0.739 0.419 0.002 0.65-0.474 1.474-1.039 1.8z"></path>
<path d="M28.444 17.104c-0.003-0.002-0.007-0.003-0.010-0.005l-1.96-1.141c-0.089-0.052-0.183-0.091-0.277-0.132 0.49-1.705 0.744-3.365 0.738-4.936-0.009-3.292-1.139-5.76-3.177-6.968-0.088-0.072 0.099 0.054-3.331-1.945-2.094-1.214-4.853-0.955-7.77 0.728-3.042 1.712-6.615 5.425-8.829 10.496-0.068 0.156 0.003 0.337 0.159 0.405 0.156 0.069 0.337-0.002 0.405-0.159 2.116-4.848 5.587-8.53 8.57-10.208 2.721-1.571 5.261-1.831 7.156-0.731l1.1 0.639c-1.839-0.114-3.741 0.586-5.324 1.508-3.41 1.986-6.434 5.607-8.367 9.614-1.385 2.87-2.216 5.936-2.21 8.745 0.008 1.771 0.367 3.715 1.338 5.194l-1.101-0.639c-1.869-1.090-2.902-3.389-2.909-6.476-0.002-0.839 0.072-1.721 0.222-2.625 0.028-0.168-0.085-0.326-0.253-0.354-0.172-0.031-0.326 0.085-0.354 0.253-0.155 0.937-0.233 1.854-0.23 2.727 0.007 3.314 1.148 5.802 3.215 7.006l3.283 1.905c2.255 0.919 4.181 1.364 7.791-0.721 0.877-0.505 1.756-1.146 2.619-1.895 0.178 0.194 0.379 0.362 0.606 0.494l1.978 1.152c0.003 0.002 0.006 0.001 0.008 0.002 0.001 0.001 0.002 0.002 0.004 0.003 1.133 0.652 2.491 0.324 3.624-0.33 2.661-1.537 4.819-5.279 4.811-8.343-0.004-1.542-0.546-2.702-1.526-3.266zM16.012 28.754c-2.276 1.315-5.031 2.039-7.268 0.656-2.112-1.299-2.799-3.917-2.806-6.396-0.008-2.708 0.787-5.662 2.114-8.432 2.127-4.437 5.31-7.756 8.2-9.423 0.001-0 0.002-0.001 0.003-0.001 2.201-1.272 4.945-2.004 7.139-0.741 1.878 1.081 2.918 3.381 2.926 6.477 0.005 1.511-0.231 3.109-0.704 4.756-0.687-0.125-1.277 0.041-1.342 0.050 0.521-1.679 0.796-3.294 0.791-4.802-0.010-5.484-3.475-7.385-8.184-4.653-4.961 2.86-9.225 9.906-9.651 15.789-0.012 0.042-0.013 0.086-0.005 0.13-0.018 0.284-0.037 0.569-0.036 0.847 0.018 5.275 3.288 7.485 8.196 4.659 0.93-0.535 1.846-1.231 2.734-2.057 0.091 0.5 0.281 0.996 0.453 1.292-0.844 0.736-1.704 1.358-2.558 1.851zM18.032 24.854c-0.714 0.698-1.448 1.302-2.193 1.805l-0.004-1.529c-0.001-0.169-0.138-0.307-0.308-0.307s-0.308 0.139-0.308 0.309l0.005 1.912c-0.049 0.029-0.098 0.064-0.148 0.092-1.394 0.802-3.295 1.508-4.805 0.943l1.060-1.847c0.085-0.148 0.034-0.335-0.114-0.42-0.146-0.084-0.335-0.035-0.42 0.114l-1.076 1.874c-1.217-0.772-1.912-2.443-1.92-4.791-0-0.235 0.017-0.477 0.030-0.716l1.608-0.929c0.147-0.085 0.198-0.273 0.112-0.42s-0.273-0.198-0.42-0.113l-1.24 0.716c0.254-2.318 1.092-4.788 2.324-7.083l0.987 0.562c0.15 0.084 0.336 0.031 0.42-0.115 0.084-0.148 0.032-0.336-0.115-0.42l-0.998-0.569c1.515-2.657 3.545-5.029 5.779-6.573l0.005 1.542c0.001 0.17 0.138 0.307 0.308 0.307h0.001c0.169-0.001 0.307-0.139 0.306-0.309l-0.006-1.932c0.095-0.058 0.188-0.125 0.283-0.18 1.515-0.879 3.57-1.611 5.129-0.8l-1.101 1.917c-0.085 0.147-0.034 0.335 0.114 0.42 0.146 0.084 0.334 0.035 0.42-0.114l1.080-1.88c1.033 0.845 1.616 2.426 1.619 4.579 0.001 0.364-0.017 0.737-0.049 1.114l-1.703 0.983c-0.147 0.085-0.198 0.273-0.112 0.42 0.084 0.146 0.272 0.198 0.42 0.113l1.301-0.751c-0.139 1.013-0.376 2.060-0.737 3.142-0.186 0.076-0.478 0.218-0.727 0.362-2.663 1.54-4.825 5.279-4.819 8.334 0 0.082 0.002 0.161 0.008 0.239zM18.642 24.615c-0.006-2.862 2.017-6.361 4.509-7.8 0.904-0.523 2.111-0.85 3.013-0.325l0.49 0.285c-0.493 0.061-1.166 0.273-1.833 0.657-2.566 1.482-4.823 5.175-4.817 8.336 0.003 0.726 0.15 1.416 0.34 1.871-0.679-0.461-1.693-0.807-1.703-3.025zM24.852 28.18c-1.154 0.666-2.224 0.783-3.010 0.33-0.92-0.529-1.217-1.684-1.22-2.742-0.008-2.864 2.039-6.376 4.507-7.801 0.91-0.526 2.070-0.848 2.983-0.338 0.009 0.005 0.018 0.008 0.027 0.013l0.002 0.002c0.001 0 0.001 0 0.002 0.001 0.777 0.452 1.207 1.42 1.211 2.729 0.008 2.867-2.012 6.37-4.503 7.808z"></path>
<path d="M25.806 22.738c-0.273-0.157-0.626-0.133-0.971 0.066-0.149 0.086-0.282 0.11-0.359 0.067-0.075-0.043-0.12-0.17-0.121-0.338-0.001-0.488 0.356-1.108 0.782-1.353 0.148-0.084 0.281-0.108 0.356-0.066s0.121 0.17 0.121 0.338c0.001 0.17 0.138 0.307 0.308 0.307h0.001c0.169-0.001 0.307-0.139 0.306-0.309-0.001-0.396-0.158-0.713-0.43-0.87-0.15-0.086-0.325-0.113-0.509-0.091v-0.576c0-0.17-0.138-0.308-0.308-0.308s-0.308 0.138-0.308 0.308v0.839c-0.537 0.394-0.938 1.138-0.936 1.782 0.001 0.396 0.157 0.713 0.43 0.869s0.627 0.133 0.974-0.067c0.148-0.085 0.281-0.108 0.356-0.066 0.076 0.044 0.121 0.17 0.121 0.338 0.001 0.486-0.355 1.104-0.779 1.348-0.148 0.086-0.282 0.111-0.36 0.067-0.075-0.043-0.12-0.168-0.12-0.335-0.001-0.17-0.138-0.307-0.308-0.307 0 0-0.001 0-0.001 0-0.169 0.001-0.307 0.139-0.306 0.309 0.001 0.395 0.157 0.71 0.429 0.866 0.119 0.069 0.254 0.102 0.396 0.102 0.034 0 0.070-0.012 0.105-0.016v0.587c0 0.17 0.138 0.308 0.308 0.308s0.308-0.138 0.308-0.308v-0.839c0.541-0.391 0.947-1.138 0.945-1.785-0.001-0.396-0.158-0.713-0.43-0.87z"></path>
</symbol>
<symbol id="icon-terms" viewBox="0 0 32 32">
<path d="M28.881 30.291h-2.571c0.010-0.009 0.020-0.017 0.030-0.027 0.876-0.876 0.882-2.332-0.087-3.204l-5.641-4.748c1.773-2.794 1.385-6.463-0.98-8.828-0.724-0.724-1.575-1.271-2.504-1.622 0.945-1.243 1.485-2.784 1.485-4.405v-2.555h0.263c1.052 0 1.907-0.855 1.907-1.907s-0.855-1.907-1.907-1.907h-14.943c-1.051 0-1.907 0.855-1.907 1.907s0.855 1.907 1.907 1.907h0.134v0.806c0 0.174 0.14 0.311 0.311 0.311s0.311-0.137 0.311-0.311v-0.805h13.303v2.554c0 1.56-0.547 3.035-1.494 4.2-0.363-0.102-0.739-0.174-1.118-0.214 0.609-0.618 1.078-1.376 1.355-2.218 0.031-0.096 0.012-0.199-0.044-0.28-0.059-0.081-0.152-0.127-0.252-0.127h-10.193c-0.099 0-0.193 0.047-0.252 0.127s-0.075 0.183-0.043 0.28c0.28 0.854 0.743 1.612 1.379 2.246 0.488 0.488 1.053 0.879 1.678 1.162 0.32 0.146 0.612 0.329 0.876 0.553-0.109 0.093-0.217 0.193-0.32 0.298-0.13 0.13-0.255 0.264-0.37 0.401-0.177-0.143-0.376-0.264-0.59-0.36-0.733-0.332-1.395-0.792-1.967-1.364-1.255-1.255-1.948-2.924-1.948-4.704 0-0.171-0.14-0.311-0.311-0.311s-0.311 0.14-0.311 0.311c0 1.945 0.758 3.772 2.131 5.145 0.625 0.624 1.348 1.125 2.15 1.488 0.168 0.075 0.323 0.171 0.463 0.283-0.889 1.236-1.333 2.694-1.33 4.154-2.1 1.317-3.414 3.641-3.414 6.167 0 0.171 0.14 0.311 0.311 0.311s0.311-0.14 0.311-0.311c0-2.187 1.081-4.213 2.83-5.44 0.081 0.792 0.295 1.572 0.643 2.308-1.541 1.044-2.498 2.802-2.498 4.704v0.834h-0.976v-0.611c0-0.171-0.14-0.311-0.311-0.311s-0.311 0.14-0.311 0.311v0.611h-0.134c-1.051 0-1.907 0.855-1.907 1.907 0 0.559 0.244 1.062 0.629 1.411-0.040 0.052-0.067 0.114-0.067 0.185 0 0.172 0.139 0.311 0.311 0.311h25.984c0.172 0 0.311-0.139 0.311-0.311s-0.139-0.311-0.311-0.311zM2.647 2.994c0-0.709 0.576-1.286 1.285-1.286h14.943c0.709 0 1.285 0.577 1.285 1.286s-0.577 1.285-1.285 1.285h-14.943c-0.709 0-1.285-0.577-1.285-1.285zM25.845 27.529c1.181 1.063 0.256 2.582-0.893 2.763h-0.441c-0.313-0.049-0.625-0.209-0.9-0.515l-4.704-5.593c0.121-0.091 0.497-0.401 0.738-0.646 0.233-0.234 0.515-0.575 0.617-0.708l5.583 4.699zM18.875 27.099h-0.263v-2.301l4.531 5.386c0.034 0.038 0.071 0.072 0.107 0.107h-2.97c0.311-0.339 0.502-0.79 0.502-1.285 0-1.052-0.855-1.907-1.907-1.907zM9.264 12.067c-0.559-0.252-1.063-0.6-1.497-1.038-0.463-0.46-0.823-0.994-1.075-1.591h9.296c-0.329 0.767-0.839 1.442-1.485 1.963-1.507 0.016-2.939 0.5-4.132 1.383-0.329-0.292-0.699-0.534-1.106-0.718zM8.111 18.877c-0.123-2.313 0.981-4.429 2.7-5.639 0.721-0.522 1.535-0.882 2.398-1.069 2.025-0.447 4.314 0.089 5.981 1.755 2.558 2.554 2.513 6.676 0 9.189-0.641 0.641-1.509 1.203-2.408 1.526-2.247 0.82-4.937 0.32-6.782-1.525-1.14-1.14-1.804-2.653-1.889-4.238zM6.284 26.265c0-1.671 0.83-3.219 2.172-4.148 1.238 2.128 3.557 3.523 6.142 3.523 0.578 0 1.156-0.068 1.724-0.211 0.050 0.273 0.071 0.553 0.071 0.836v0.808h-10.11v-0.808zM16.922 25.249c0.363-0.127 0.724-0.283 1.069-0.472v2.323h-0.976v-0.834c0-0.345-0.031-0.683-0.093-1.016zM3.932 30.291c-0.709 0-1.285-0.576-1.285-1.285s0.576-1.285 1.285-1.285c-0.032 0 0.149 0.001 14.943 0 0.709 0 1.285 0.577 1.285 1.285s-0.577 1.285-1.285 1.285h-14.943z"></path>
<path d="M1.599 30.291h-0.502c-0.172 0-0.311 0.139-0.311 0.311s0.139 0.311 0.311 0.311h0.502c0.172 0 0.311-0.139 0.311-0.311s-0.139-0.311-0.311-0.311z"></path>
<path d="M30.903 30.291h-0.801c-0.172 0-0.311 0.139-0.311 0.311s0.139 0.311 0.311 0.311h0.801c0.172 0 0.311-0.139 0.311-0.311s-0.139-0.311-0.311-0.311z"></path>
<path d="M14.594 23.621c1.312 0 2.614-0.497 3.61-1.491 1.991-1.991 1.991-5.232 0-7.22-1.085-1.085-2.548-1.572-3.918-1.482h-0.003c-0.802 0.047-1.594 0.283-2.302 0.708-1.308 0.763-2.276 2.168-2.457 3.825v0.003c-0.329 2.955 1.964 5.657 5.070 5.657zM13.053 16.028c0-0.829 0.494-1.588 1.264-1.932 0.037-0.019 0.078-0.034 0.115-0.053 0.053-0.006 0.109-0.006 0.162-0.006 1.149 0 2.299 0.438 3.172 1.311 1.703 1.703 1.749 4.443 0.134 6.198-0.351-0.73-0.826-1.407-1.417-1.998-0.628-0.621-1.348-1.125-2.15-1.485-0.78-0.354-1.28-1.112-1.28-1.939v-0.096zM13.047 14.313c-0.699 0.854-0.607 1.761-0.615 1.811 0 1.069 0.643 2.050 1.643 2.504 0.733 0.332 1.395 0.789 1.967 1.361 0.59 0.59 1.053 1.268 1.379 2.010-0.475 0.388-1.010 0.662-1.572 0.823-0.149-0.199-0.317-0.391-0.497-0.572-0.488-0.488-1.053-0.879-1.678-1.162-0.954-0.432-1.69-1.237-2.023-2.218l-0.003-3.731c0.419-0.37 0.895-0.643 1.398-0.826zM11.027 15.801l0.003 3.060c-0.143 0.432-0.364 0.833-0.649 1.177-0.506-1.404-0.292-3.007 0.646-4.238zM11.341 19.716c0.452 0.848 1.176 1.53 2.075 1.942 0.556 0.252 1.063 0.6 1.498 1.035 0.087 0.087 0.171 0.177 0.248 0.27-1.33 0.171-2.718-0.255-3.737-1.274-0.314-0.314-0.569-0.659-0.767-1.028 0.27-0.283 0.5-0.6 0.684-0.945z"></path>
</symbol>
</defs>
</svg>
