<svg width="58" height="46" viewBox="0 0 58 46" fill="none" xmlns="http://www.w3.org/2000/svg">
<path d="M51 20.5H49V21.5H51C54.032 21.5 56.5 23.967 56.5 27V35C56.5 38.033 54.032 40.5 51 40.5H9C8.724 40.5 8.5 40.724 8.5 41V44C8.5 44.2 8.39 44.371 8.21 44.457C8.057 44.529 7.821 44.504 7.68 44.386L1.678 39.385C1.565 39.291 1.5 39.151 1.5 39C1.5 38.849 1.565 38.709 1.68 38.614L7.68 33.614C7.83 33.49 8.034 33.464 8.207 33.542C8.39 33.629 8.5 33.8 8.5 34V37C8.5 37.276 8.724 37.5 9 37.5H51C52.379 37.5 53.5 36.378 53.5 35V27C53.5 25.622 52.379 24.5 51 24.5H49V25.5H51C51.827 25.5 52.5 26.173 52.5 27V35C52.5 35.827 51.827 36.5 51 36.5H9.5V34C9.5 33.412 9.168 32.89 8.627 32.635C8.096 32.392 7.487 32.473 7.039 32.846L1.041 37.845C0.697 38.128 0.5 38.55 0.5 39C0.5 39.45 0.697 39.872 1.04 40.154L7.04 45.154C7.308 45.377 7.649 45.5 8 45.5C8.22 45.5 8.437 45.453 8.633 45.362C9.168 45.11 9.5 44.588 9.5 44V41.5H51C54.584 41.5 57.5 38.584 57.5 35V27C57.5 23.416 54.584 20.5 51 20.5Z" fill="black"/>
<path d="M7 25.5001H9V24.5001H7C3.967 24.5001 1.5 22.0331 1.5 19.0001V11.0001C1.5 7.96706 3.967 5.50006 7 5.50006H49C49.276 5.50006 49.5 5.27606 49.5 5.00006V2.00006C49.5 1.80006 49.609 1.62906 49.788 1.54406C49.967 1.46106 50.17 1.49006 50.319 1.61406L56.321 6.61506C56.435 6.70906 56.5 6.84906 56.5 7.00006C56.5 7.15106 56.435 7.29106 56.319 7.38606L50.319 12.3861C50.178 12.5031 49.937 12.5251 49.793 12.4581C49.609 12.3711 49.5 12.2001 49.5 12.0001V9.00006C49.5 8.72406 49.276 8.50006 49 8.50006H7C5.622 8.50006 4.5 9.62206 4.5 11.0001V19.0001C4.5 20.3781 5.622 21.5001 7 21.5001H9V20.5001H7C6.173 20.5001 5.5 19.8271 5.5 19.0001V11.0001C5.5 10.1731 6.173 9.50006 7 9.50006H48.5V12.0001C48.5 12.5881 48.832 13.1101 49.37 13.3641C49.866 13.5931 50.527 13.5131 50.96 13.1551L56.958 8.15606C57.303 7.87206 57.5 7.45106 57.5 7.00006C57.5 6.54906 57.303 6.12806 56.96 5.84606L50.96 0.846063C50.513 0.472063 49.905 0.392063 49.367 0.638063C48.832 0.890063 48.5 1.41206 48.5 2.00006V4.50006H7C3.416 4.50006 0.5 7.41606 0.5 11.0001V19.0001C0.5 22.5841 3.416 25.5001 7 25.5001Z" fill="black"/>
<path d="M13 12.5C11.622 12.5 10.5 13.622 10.5 15V31C10.5 32.378 11.622 33.5 13 33.5H45C46.379 33.5 47.5 32.378 47.5 31V15C47.5 13.622 46.379 12.5 45 12.5H13ZM46.5 15V31C46.5 31.827 45.827 32.5 45 32.5H13C12.173 32.5 11.5 31.827 11.5 31V15C11.5 14.173 12.173 13.5 13 13.5H45C45.827 13.5 46.5 14.173 46.5 15Z" fill="black"/>
<path d="M43.5022 15C43.5022 14.724 43.2782 14.5 43.0022 14.5H34.9922V15.5H42.5522C42.7522 16.478 43.5242 17.25 44.5022 17.45V28.55C43.5232 28.749 42.7522 29.522 42.5522 30.5H34.9922V31.5H43.0022C43.2782 31.5 43.5022 31.276 43.5022 31C43.5022 30.173 44.1752 29.5 45.0022 29.5C45.2782 29.5 45.5022 29.276 45.5022 29V17C45.5022 16.724 45.2782 16.5 45.0022 16.5C44.1752 16.5 43.5022 15.827 43.5022 15Z" fill="black"/>
<path d="M13.5 28.55V17.45C14.478 17.251 15.25 16.478 15.45 15.5H23.01V14.5H15C14.724 14.5 14.5 14.724 14.5 15C14.5 15.827 13.827 16.5 13 16.5C12.724 16.5 12.5 16.724 12.5 17V29C12.5 29.276 12.724 29.5 13 29.5C13.827 29.5 14.5 30.173 14.5 31C14.5 31.276 14.724 31.5 15 31.5H23.01V30.5H15.45C15.25 29.522 14.478 28.75 13.5 28.55Z" fill="black"/>
<path d="M37.5 23C37.5 18.313 33.687 14.5 29 14.5C24.313 14.5 20.5 18.313 20.5 23C20.5 27.687 24.313 31.5 29 31.5C33.687 31.5 37.5 27.687 37.5 23ZM29 30.5C24.864 30.5 21.5 27.136 21.5 23C21.5 18.864 24.864 15.5 29 15.5C33.136 15.5 36.5 18.864 36.5 23C36.5 27.136 33.136 30.5 29 30.5Z" fill="black"/>
<path d="M29 22.5C28.173 22.5 27.5 21.827 27.5 21C27.5 20.173 28.173 19.5 29 19.5H31V18.5H29.5V17H28.5V18.551C27.36 18.783 26.5 19.793 26.5 21C26.5 22.378 27.622 23.5 29 23.5C29.827 23.5 30.5 24.173 30.5 25C30.5 25.827 29.827 26.5 29 26.5H27V27.5H28.5V29H29.5V27.449C30.64 27.217 31.5 26.207 31.5 25C31.5 23.622 30.379 22.5 29 22.5Z" fill="black"/>
<path d="M15 22.5H19V23.5H15V22.5Z" fill="black"/>
<path d="M39 22.5H43V23.5H39V22.5Z" fill="black"/>
</svg>
