<svg aria-hidden="true" style="position: absolute; width: 0; height: 0; overflow: hidden;" version="1.1" xmlns="http://www.w3.org/2000/svg" xmlns:xlink="http://www.w3.org/1999/xlink">
<defs>
<symbol id="business-icon" viewBox="0 0 33 32">
<path d="M30.877 9.263h-2.246c-0.678 0-1.245 0.483-1.375 1.123h-4.239v0.561h3.088v10.386h0.561v-10.386h0.561v10.947c0 0.774 0.629 1.404 1.404 1.404h2.246c0.774 0 1.404-0.63 1.404-1.404v-11.228c0-0.774-0.629-1.403-1.404-1.403zM31.719 21.895c0 0.464-0.378 0.842-0.842 0.842h-2.246c-0.464 0-0.842-0.378-0.842-0.842v-11.228c0-0.464 0.378-0.842 0.842-0.842h2.246c0.464 0 0.842 0.378 0.842 0.842v11.228z"></path>
<path d="M9.544 10.947v-0.561h-4.239c-0.13-0.64-0.697-1.123-1.375-1.123h-2.246c-0.774 0-1.403 0.63-1.403 1.403v11.228c0 0.774 0.629 1.404 1.403 1.404h2.246c0.774 0 1.404-0.63 1.404-1.404v-10.947h0.561v10.386h0.561v-10.386h3.088zM3.93 22.737h-2.246c-0.464 0-0.842-0.378-0.842-0.842v-11.228c0-0.464 0.378-0.842 0.842-0.842h2.246c0.464 0 0.842 0.378 0.842 0.842v11.228c0 0.464-0.378 0.842-0.842 0.842z"></path>
<path d="M17.603 13.836c-0.109-0.109-0.287-0.109-0.397 0l-2.902 2.902c-0.766 0.766-2.014 0.767-2.781 0l-0.258-0.258c-0.108-0.108-0.108-0.292 0-0.4l2.97-2.97-0.397-0.397-2.97 2.97c-0.329 0.329-0.329 0.865 0 1.194l0.258 0.258c0.986 0.985 2.589 0.985 3.574 0l2.704-2.704 7.661 7.661c0.509 0.51 0.509 1.339 0 1.849-0.491 0.491-1.357 0.491-1.849 0l-2.246-2.246-0.397 0.397 2.246 2.246c0.509 0.51 0.509 1.339 0 1.849-0.491 0.491-1.357 0.491-1.849 0l-2.246-2.246-0.397 0.397 2.246 2.246c0.509 0.51 0.509 1.339 0 1.849-0.491 0.491-1.357 0.491-1.849 0l-2.246-2.246-0.397 0.397 2.246 2.246c0.509 0.51 0.509 1.339 0 1.849-0.255 0.255-0.609 0.391-0.963 0.378l-0.023 0.561c0.025 0.001 0.049 0.002 0.074 0.002 0.488 0 0.962-0.196 1.31-0.544 0.473-0.473 0.639-1.14 0.497-1.749 0.612 0.141 1.295-0.043 1.748-0.497 0.473-0.473 0.639-1.14 0.497-1.749 0.612 0.141 1.295-0.043 1.748-0.497 0.473-0.473 0.639-1.14 0.497-1.749 0.611 0.142 1.295-0.043 1.748-0.497 0.728-0.729 0.728-1.914 0-2.643l-7.859-7.86z"></path>
<path d="M14.722 27.944c0.146-0.611-0.013-1.281-0.489-1.757s-1.145-0.635-1.757-0.489c0.146-0.611-0.013-1.281-0.489-1.757s-1.145-0.635-1.757-0.489c0.146-0.611-0.013-1.281-0.489-1.757-0.728-0.729-1.914-0.729-2.643 0s-0.729 1.914 0 2.643c0.364 0.364 0.843 0.546 1.322 0.546 0.147 0 0.292-0.023 0.435-0.057-0.146 0.611 0.013 1.281 0.489 1.757 0.364 0.364 0.843 0.546 1.322 0.546 0.147 0 0.292-0.023 0.435-0.057-0.146 0.611 0.013 1.281 0.489 1.757 0.364 0.364 0.843 0.546 1.322 0.546 0.147 0 0.292-0.023 0.435-0.057-0.146 0.611 0.013 1.281 0.489 1.757 0.364 0.364 0.843 0.546 1.322 0.546s0.957-0.182 1.322-0.546c0.729-0.729 0.729-1.914 0-2.643-0.477-0.476-1.146-0.635-1.757-0.489zM7.496 23.942c-0.51-0.51-0.51-1.339 0-1.849 0.255-0.255 0.589-0.382 0.924-0.382s0.669 0.127 0.924 0.382c0.51 0.51 0.51 1.339 0 1.849s-1.338 0.51-1.848 0zM9.742 26.187c-0.51-0.51-0.51-1.339 0-1.849 0.255-0.255 0.589-0.382 0.924-0.382s0.669 0.127 0.924 0.382c0.51 0.51 0.51 1.339 0 1.849s-1.338 0.51-1.848 0zM11.987 28.433c-0.51-0.51-0.51-1.339 0-1.849 0.255-0.255 0.589-0.382 0.924-0.382s0.669 0.127 0.924 0.382c0.51 0.51 0.51 1.339 0 1.849s-1.338 0.51-1.848 0zM16.081 30.678c-0.51 0.51-1.339 0.51-1.849 0s-0.51-1.339 0-1.849c0.255-0.255 0.589-0.382 0.924-0.382s0.669 0.127 0.924 0.382c0.511 0.51 0.511 1.34 0.001 1.849z"></path>
<path d="M11.789 12.070h8.982c0.774 0 1.404-0.63 1.404-1.403v-6.737c0-0.774-0.629-1.404-1.404-1.404h-1.123v0.561h1.123c0.464 0 0.842 0.378 0.842 0.842v3.368c0 0.464-0.378 0.842-0.842 0.842h-2.246v0.561h2.246c0.317 0 0.607-0.109 0.842-0.288v2.253c0 0.464-0.378 0.842-0.842 0.842h-8.982c-0.464 0-0.842-0.378-0.842-0.842v-2.253c0.235 0.178 0.525 0.288 0.842 0.288h2.246v-0.561h-2.246c-0.464 0-0.842-0.378-0.842-0.842v-3.368c0-0.464 0.378-0.842 0.842-0.842h1.123v-0.561h-1.123c-0.774 0-1.403 0.63-1.403 1.403v6.737c0 0.774 0.629 1.403 1.403 1.403z"></path>
<path d="M14.316 1.123c0-0.155 0.126-0.281 0.281-0.281h3.368c0.154 0 0.281 0.126 0.281 0.281v1.684h0.561v-1.684c0-0.464-0.378-0.842-0.842-0.842h-3.368c-0.464 0-0.842 0.378-0.842 0.842v1.684h0.561v-1.684z"></path>
<path d="M17.684 1.684c0-0.155-0.126-0.281-0.281-0.281h-2.246c-0.155 0-0.281 0.126-0.281 0.281v1.123c0 0.155 0.126 0.281 0.281 0.281h2.246c0.155 0 0.281-0.126 0.281-0.281v-1.123zM17.123 2.526h-1.684v-0.561h1.684v0.561z"></path>
<path d="M16.842 7.018h-1.123c-0.464 0-0.842 0.378-0.842 0.842v1.123c0 0.464 0.378 0.842 0.842 0.842h1.123c0.464 0 0.842-0.378 0.842-0.842v-1.123c0-0.464-0.378-0.842-0.842-0.842zM17.123 8.982c0 0.155-0.126 0.281-0.281 0.281h-1.123c-0.154 0-0.281-0.126-0.281-0.281v-1.123c0-0.155 0.126-0.281 0.281-0.281h1.123c0.154 0 0.281 0.126 0.281 0.281v1.123z"></path>
</symbol>
<symbol id="credit-icon" viewBox="0 0 29 32">
<path d="M5.517 20.69h9.677v-0.552h-9.677c-0.152 0-0.276-0.124-0.276-0.276v-1.103c0-0.152 0.124-0.276 0.276-0.276h9.379v-0.552h-9.379c-0.456 0-0.828 0.371-0.828 0.828v1.103c0 0.456 0.371 0.828 0.828 0.828z"></path>
<path d="M7.724 8.552h2.207c0.456 0 0.828-0.371 0.828-0.828v-2.207c0-0.456-0.371-0.828-0.828-0.828h-2.207c-0.456 0-0.828 0.371-0.828 0.828v2.207c0 0.456 0.371 0.828 0.828 0.828zM7.448 5.517c0-0.152 0.124-0.276 0.276-0.276h2.207c0.152 0 0.276 0.124 0.276 0.276v2.207c0 0.152-0.124 0.276-0.276 0.276h-2.207c-0.152 0-0.276-0.124-0.276-0.276v-2.207z"></path>
<path d="M15.172 5.517c0-0.456-0.371-0.828-0.828-0.828h-2.207c-0.456 0-0.828 0.371-0.828 0.828v2.207c0 0.456 0.371 0.828 0.828 0.828h2.207c0.456 0 0.828-0.371 0.828-0.828v-2.207zM14.621 7.724c0 0.152-0.124 0.276-0.276 0.276h-2.207c-0.152 0-0.276-0.124-0.276-0.276v-2.207c0-0.152 0.124-0.276 0.276-0.276h2.207c0.152 0 0.276 0.124 0.276 0.276v2.207z"></path>
<path d="M16.552 5.241h1.81v-0.552h-1.81c-0.456 0-0.828 0.371-0.828 0.828v2.207c0 0.456 0.371 0.828 0.828 0.828h1.754v-0.552h-1.754c-0.152 0-0.276-0.124-0.276-0.276v-2.207c0-0.152 0.124-0.276 0.276-0.276z"></path>
<path d="M6.897 12.138c0 0.456 0.371 0.828 0.828 0.828h2.207c0.456 0 0.828-0.371 0.828-0.828v-2.207c0-0.456-0.371-0.828-0.828-0.828h-2.207c-0.456 0-0.828 0.371-0.828 0.828v2.207zM7.448 9.931c0-0.152 0.124-0.276 0.276-0.276h2.207c0.152 0 0.276 0.124 0.276 0.276v2.207c0 0.152-0.124 0.276-0.276 0.276h-2.207c-0.152 0-0.276-0.124-0.276-0.276v-2.207z"></path>
<path d="M15.172 12.138v-2.207c0-0.456-0.371-0.828-0.828-0.828h-2.207c-0.456 0-0.828 0.371-0.828 0.828v2.207c0 0.456 0.371 0.828 0.828 0.828h2.207c0.456 0 0.828-0.371 0.828-0.828zM14.621 12.138c0 0.152-0.124 0.276-0.276 0.276h-2.207c-0.152 0-0.276-0.124-0.276-0.276v-2.207c0-0.152 0.124-0.276 0.276-0.276h2.207c0.152 0 0.276 0.124 0.276 0.276v2.207z"></path>
<path d="M15.724 10.494h0.552v-0.563c0-0.152 0.124-0.276 0.276-0.276h0.563v-0.552h-0.563c-0.456 0-0.828 0.371-0.828 0.828v0.563z"></path>
<path d="M5.517 3.034h0.276v14.069h0.552v-14.069h13.793v0.749h0.552v-0.749h0.276c0.456 0 0.828-0.371 0.828-0.828v-1.103c0-0.456-0.371-0.828-0.828-0.828h-15.448c-0.456 0-0.828 0.371-0.828 0.828v1.103c0 0.456 0.371 0.828 0.828 0.828zM5.241 1.103c0-0.152 0.124-0.276 0.276-0.276h15.448c0.152 0 0.276 0.124 0.276 0.276v1.103c0 0.152-0.124 0.276-0.276 0.276h-15.448c-0.152 0-0.276-0.124-0.276-0.276v-1.103z"></path>
<path d="M19.054 5.418c-0.244 0.456-0.218 0.985 0.069 1.416l0.777 1.166h-0.036c-0.456 0-0.828 0.371-0.828 0.828s0.371 0.828 0.828 0.828h3.31c0.456 0 0.828-0.371 0.828-0.828s-0.371-0.828-0.828-0.828h-0.036l0.777-1.166c0.287-0.43 0.313-0.959 0.069-1.416s-0.699-0.729-1.217-0.729h-2.497c-0.518 0-0.973 0.273-1.217 0.729zM23.45 8.828c0 0.152-0.124 0.276-0.276 0.276h-3.31c-0.152 0-0.276-0.124-0.276-0.276s0.124-0.276 0.276-0.276h3.31c0.152 0 0.276 0.124 0.276 0.276zM23.498 5.678c0.146 0.274 0.131 0.591-0.041 0.85l-0.982 1.472h-1.912l-0.981-1.472c-0.172-0.258-0.188-0.575-0.041-0.85s0.42-0.437 0.73-0.437h2.497c0.311 0 0.584 0.163 0.73 0.437z"></path>
<path d="M26.759 13.793v5.517c0 0.456-0.371 0.828-0.828 0.828h-8.828c-0.456 0-0.828-0.371-0.828-0.828v-5.517c0-1.592 0.93-3.060 2.369-3.74l-0.236-0.499c-1.631 0.77-2.685 2.434-2.685 4.238v5.517c0 0.76 0.618 1.379 1.379 1.379h8.828c0.761 0 1.379-0.619 1.379-1.379v-5.517c0-1.805-1.054-3.468-2.685-4.238l-0.236 0.499c1.439 0.68 2.369 2.147 2.369 3.74z"></path>
<path d="M6.069 22.345h-4.414c-0.761 0-1.379 0.619-1.379 1.379v6.621c0 0.76 0.618 1.379 1.379 1.379h4.414c0.761 0 1.379-0.619 1.379-1.379v-6.621c0-0.76-0.618-1.379-1.379-1.379zM6.897 30.345c0 0.456-0.371 0.828-0.828 0.828h-4.414c-0.456 0-0.828-0.371-0.828-0.828v-6.621c0-0.456 0.371-0.828 0.828-0.828h4.414c0.456 0 0.828 0.371 0.828 0.828v6.621z"></path>
<path d="M3.862 26.759c-0.761 0-1.379 0.619-1.379 1.379s0.618 1.379 1.379 1.379c0.761 0 1.379-0.619 1.379-1.379s-0.618-1.379-1.379-1.379zM3.862 28.966c-0.456 0-0.828-0.371-0.828-0.828s0.371-0.828 0.828-0.828c0.456 0 0.828 0.371 0.828 0.828s-0.371 0.828-0.828 0.828z"></path>
<path d="M26.482 21.793c-0.515 0-1 0.201-1.365 0.566l-4.399 4.399h-0.61c0.358-0.351 0.581-0.839 0.581-1.379 0-1.065-0.866-1.931-1.931-1.931h-2.644l-0.835-0.835c-0.885-0.884-2.061-1.372-3.313-1.372h-0.761c-1.251 0-2.427 0.487-3.321 1.38l0.399 0.381c0.78-0.781 1.818-1.21 2.922-1.21h0.762c1.104 0 2.142 0.43 2.922 1.21l0.916 0.916c0.051 0.052 0.121 0.081 0.195 0.081h2.759c0.761 0 1.379 0.619 1.379 1.379s-0.618 1.379-1.379 1.379h-4.966v0.552h7.040c0.073 0 0.143-0.029 0.195-0.081l4.48-4.48c0.26-0.262 0.607-0.405 0.974-0.405 0.761 0 1.379 0.619 1.379 1.379 0 0.367-0.144 0.713-0.404 0.975l-4.966 4.966c-0.261 0.261-0.607 0.404-0.975 0.404h-13.241v0.552h13.241c0.515 0 1-0.201 1.365-0.566l4.966-4.966c0.365-0.365 0.566-0.85 0.566-1.365 0-1.065-0.866-1.931-1.931-1.931z"></path>
<path d="M13.517 17.103v-3.034h1.379v-0.552h-3.862c-0.456 0-0.828 0.371-0.828 0.828v2.759h0.552v-2.759c0-0.152 0.124-0.276 0.276-0.276h1.931v3.034h0.552z"></path>
<path d="M22.069 17.379h-1.103c-0.456 0-0.828-0.371-0.828-0.828h-0.552c0 0.76 0.618 1.379 1.379 1.379h0.276v0.828h0.552v-0.828h0.276c0.761 0 1.379-0.619 1.379-1.379v-0.308c0-0.595-0.379-1.121-0.943-1.309l-1.802-0.6c-0.338-0.113-0.566-0.429-0.566-0.785v-0.308c0-0.456 0.371-0.828 0.828-0.828h1.103c0.456 0 0.828 0.371 0.828 0.828h0.552c0-0.76-0.618-1.379-1.379-1.379h-0.276v-0.828h-0.552v0.828h-0.276c-0.761 0-1.379 0.619-1.379 1.379v0.308c0 0.595 0.379 1.121 0.943 1.309l1.802 0.6c0.338 0.113 0.566 0.429 0.566 0.785v0.308c0 0.456-0.371 0.828-0.828 0.828z"></path>
</symbol>
<symbol id="facebook-icon" viewBox="0 0 32 32">
<path d="M27.313 0h-22.625c-2.584 0-4.688 2.103-4.688 4.688v22.625c0 2.584 2.103 4.688 4.688 4.688h9.438v-11.313h-3.75v-5.625h3.75v-3.813c0-3.102 2.523-5.625 5.625-5.625h5.688v5.625h-5.688v3.813h5.688l-0.938 5.625h-4.75v11.313h7.562c2.584 0 4.688-2.103 4.688-4.688v-22.625c0-2.584-2.103-4.688-4.688-4.688z"></path>
</symbol>
<symbol id="leasing-icon" viewBox="0 0 32 32">
<path d="M12.69 21.241h-2.4c-0.109 0-0.209 0.065-0.253 0.165-0.839 1.911-2.726 3.145-4.807 3.145-1.752 0-3.38-0.87-4.356-2.328-0.057-0.084-0.063-0.194-0.011-0.287 0.045-0.088 0.137-0.143 0.241-0.143h2.714c0.097 0 0.186-0.051 0.237-0.134l1.324-2.207c0.052-0.087 0.052-0.196 0-0.284l-1.324-2.207c-0.050-0.083-0.14-0.134-0.237-0.134h-2.714c-0.103 0-0.195-0.055-0.244-0.151-0.048-0.085-0.042-0.195 0.016-0.28 0.975-1.457 2.604-2.327 4.355-2.327 2.081 0 3.967 1.235 4.807 3.145 0.044 0.1 0.143 0.165 0.253 0.165h2.4v-0.552h-2.222c-0.962-2.017-2.998-3.31-5.236-3.31-1.937 0-3.736 0.962-4.814 2.571-0.175 0.259-0.191 0.588-0.044 0.85 0.141 0.272 0.42 0.441 0.73 0.441h2.558l1.159 1.931-1.159 1.931h-2.558c-0.311 0-0.59 0.169-0.726 0.433-0.151 0.27-0.136 0.599 0.039 0.857 1.078 1.61 2.878 2.572 4.814 2.572 2.239 0 4.275-1.293 5.236-3.31h2.223v-0.552z"></path>
<path d="M31.627 21.683c-0.141-0.273-0.42-0.442-0.73-0.442h-2.558l-1.159-1.931 1.159-1.931h2.558c0.31 0 0.59-0.169 0.726-0.433 0.151-0.27 0.136-0.599-0.039-0.857-1.078-1.61-2.878-2.572-4.814-2.572-2.239 0-4.275 1.293-5.236 3.31h-2.223v0.552h2.4c0.109 0 0.209-0.065 0.253-0.165 0.839-1.911 2.726-3.145 4.807-3.145 1.752 0 3.38 0.87 4.356 2.328 0.057 0.084 0.063 0.194 0.011 0.287-0.045 0.088-0.137 0.143-0.241 0.143h-2.714c-0.097 0-0.186 0.051-0.237 0.134l-1.324 2.207c-0.052 0.087-0.052 0.196 0 0.284l1.324 2.207c0.050 0.083 0.14 0.134 0.237 0.134h2.714c0.103 0 0.195 0.055 0.244 0.151 0.048 0.085 0.042 0.195-0.016 0.28-0.975 1.458-2.604 2.327-4.356 2.327-2.081 0-3.967-1.235-4.807-3.145-0.044-0.1-0.143-0.165-0.253-0.165h-2.399v0.552h2.222c0.962 2.017 2.998 3.31 5.236 3.31 1.937 0 3.736-0.962 4.814-2.571 0.175-0.259 0.191-0.588 0.044-0.849z"></path>
<path d="M20.414 20.138h-1.103v0.552h1.103c0.372 0 0.719-0.145 0.97-0.403 0.264-0.257 0.409-0.604 0.409-0.976 0-0.76-0.618-1.379-1.379-1.379h-1.103v0.552h1.103c0.456 0 0.828 0.371 0.828 0.828 0 0.222-0.086 0.428-0.247 0.585-0.152 0.156-0.359 0.242-0.58 0.242z"></path>
<path d="M11.586 18.483h1.103v-0.552h-1.103c-0.372 0-0.719 0.145-0.97 0.403-0.264 0.257-0.409 0.604-0.409 0.976 0 0.76 0.618 1.379 1.379 1.379h1.103v-0.552h-1.103c-0.456 0-0.828-0.371-0.828-0.828 0-0.222 0.086-0.428 0.247-0.585 0.152-0.156 0.359-0.242 0.58-0.242z"></path>
<path d="M19.311 25.655h-0.828v-11.079h-0.552v11.354c0 0.152 0.124 0.276 0.276 0.276h1.103c0.335 0 0.636 0.2 0.766 0.508 0.129 0.312 0.058 0.665-0.183 0.902l-3.31 3.31c-0.316 0.316-0.85 0.316-1.166 0l-3.312-3.312c-0.239-0.235-0.31-0.589-0.182-0.9 0.13-0.309 0.43-0.509 0.766-0.509h1.103c0.152 0 0.276-0.124 0.276-0.276v-11.354h-0.552v11.079h-0.828c-0.559 0-1.059 0.333-1.276 0.849-0.216 0.521-0.097 1.112 0.302 1.503l3.31 3.31c0.263 0.262 0.609 0.406 0.973 0.406s0.71-0.144 0.973-0.406l3.309-3.309c0.401-0.393 0.519-0.984 0.303-1.506-0.216-0.515-0.716-0.849-1.275-0.849z"></path>
<path d="M16 14.069c3.803 0 6.897-3.094 6.897-6.897s-3.094-6.897-6.897-6.897c-3.803 0-6.897 3.094-6.897 6.897s3.094 6.897 6.897 6.897zM16 0.828c3.498 0 6.345 2.846 6.345 6.345s-2.846 6.345-6.345 6.345c-3.498 0-6.345-2.846-6.345-6.345s2.846-6.345 6.345-6.345z"></path>
<path d="M16 12.966c3.194 0 5.793-2.599 5.793-5.793s-2.599-5.793-5.793-5.793c-3.194 0-5.793 2.599-5.793 5.793s2.599 5.793 5.793 5.793zM16 1.931c2.89 0 5.241 2.351 5.241 5.241s-2.351 5.241-5.241 5.241c-2.89 0-5.241-2.351-5.241-5.241s2.351-5.241 5.241-5.241z"></path>
<path d="M15.724 7.448h0.552c0.609 0 1.103 0.495 1.103 1.103s-0.495 1.103-1.103 1.103h-1.931v0.552h1.379v0.828h0.552v-0.828c0.913 0 1.655-0.743 1.655-1.655s-0.743-1.655-1.655-1.655h-0.552c-0.609 0-1.103-0.495-1.103-1.103s0.495-1.103 1.103-1.103h1.931v-0.552h-1.379v-0.828h-0.552v0.828c-0.913 0-1.655 0.743-1.655 1.655s0.743 1.655 1.655 1.655z"></path>
</symbol>
<symbol id="less" viewBox="0 0 21 32">
<path d="M15.708 30.176c0.761 0.665 1.916 0.587 2.581-0.173s0.587-1.916-0.173-2.581l-13.055-11.423 13.056-11.423c0.761-0.665 0.838-1.82 0.173-2.58s-1.82-0.838-2.581-0.173l-14.628 12.8c-0.397 0.347-0.625 0.849-0.625 1.377s0.228 1.029 0.625 1.377l14.628 12.8z"></path>
</symbol>
<symbol id="linkedin-icon" viewBox="0 0 32 32">
<path fill="#d9d9d9" style="fill: var(--color2, #d9d9d9)" d="M27.313 0h-22.625c-2.584 0-4.688 2.103-4.688 4.688v22.625c0 2.584 2.103 4.688 4.688 4.688h22.625c2.584 0 4.688-2.103 4.688-4.688v-22.625c0-2.584-2.103-4.688-4.688-4.688zM11.313 25.375h-3.75v-13.125h3.75v13.125zM11.313 10.375h-3.75v-3.75h3.75v3.75zM24.438 25.375h-3.75v-7.5c0-1.034-0.841-1.875-1.875-1.875s-1.875 0.841-1.875 1.875v7.5h-3.75v-13.125h3.75v0.707c0.982-0.305 1.621-0.707 2.813-0.707 2.543 0.003 4.688 2.284 4.688 4.981v8.145z"></path>
</symbol>
<symbol id="list-item" viewBox="0 0 35 32">
<path d="M34.386 13.888l-6.185-11.582c-0.759-1.424-2.234-2.309-3.849-2.309h-13.757c-1.61 0-3.084 0.882-3.846 2.301l-6.216 11.588c-0.71 1.325-0.71 2.908 0 4.235l6.213 11.576c0.761 1.42 2.234 2.301 3.846 2.301h13.757c1.615 0 3.090-0.884 3.849-2.309l6.185-11.582c0.706-1.321 0.706-2.899 0-4.22h0.003zM17.325 20.972c-0.561 0.563-1.303 0.844-2.047 0.844s-1.491-0.284-2.060-0.851l-4.047-3.922 2.025-2.090 4.063 3.938 8.45-8.293 2.042 2.073-8.427 8.302z"></path>
</symbol>
<symbol id="logo" viewBox="0 0 103 32">
<path d="M0 0h102.815v32h-102.815v-32z"></path>
</symbol>
<symbol id="mail-icon" viewBox="0 0 32 32">
<path fill="#d9d9d9" style="fill: var(--color2, #d9d9d9)" d="M20.734 17.328l-2.68 2.689c-1.087 1.091-2.999 1.114-4.109 0l-2.68-2.689-9.626 9.657c0.358 0.166 0.753 0.264 1.173 0.264h26.375c0.42 0 0.815-0.099 1.173-0.264l-9.626-9.657z"></path>
<path fill="#d9d9d9" style="fill: var(--color2, #d9d9d9)" d="M29.186 4.75h-26.375c-0.42 0-0.815 0.099-1.173 0.265l10.286 10.32c0.001 0.001 0.002 0.001 0.002 0.002s0.001 0.002 0.001 0.002l3.345 3.356c0.355 0.355 1.099 0.355 1.454 0l3.344-3.355c0 0 0.001-0.002 0.002-0.002s0.002-0.001 0.002-0.002l10.286-10.32c-0.358-0.166-0.753-0.264-1.173-0.264z"></path>
<path fill="#d9d9d9" style="fill: var(--color2, #d9d9d9)" d="M0.299 6.326c-0.185 0.375-0.299 0.791-0.299 1.237v16.875c0 0.446 0.114 0.862 0.299 1.237l9.643-9.674-9.643-9.675z"></path>
<path fill="#d9d9d9" style="fill: var(--color2, #d9d9d9)" d="M31.702 6.326l-9.642 9.675 9.642 9.674c0.185-0.375 0.299-0.791 0.299-1.237v-16.875c0-0.446-0.114-0.862-0.299-1.237z"></path>
</symbol>
<symbol id="map-mark" viewBox="0 0 25 32">
<path fill="#d9d9d9" style="fill: var(--color2, #d9d9d9)" d="M12.629 0c-6.39 0-11.589 5.199-11.589 11.589 0 7.931 10.371 19.573 10.813 20.065 0.415 0.462 1.139 0.461 1.553 0 0.442-0.492 10.813-12.134 10.813-20.065 0-6.39-5.199-11.589-11.589-11.589zM12.629 17.42c-3.215 0-5.831-2.616-5.831-5.831s2.616-5.831 5.831-5.831c3.215 0 5.831 2.616 5.831 5.831s-2.616 5.831-5.831 5.831z"></path>
</symbol>
<symbol id="more" viewBox="0 0 21 32">
<path d="M4.864 1.824c-0.761-0.665-1.916-0.587-2.581 0.173s-0.587 1.916 0.173 2.581l13.055 11.423-13.056 11.423c-0.761 0.665-0.838 1.82-0.173 2.58s1.82 0.838 2.581 0.174l14.628-12.8c0.397-0.347 0.625-0.849 0.625-1.377s-0.228-1.029-0.625-1.377l-14.628-12.8z"></path>
</symbol>
<symbol id="phone-icon" viewBox="0 0 32 32">
<path fill="#d9d9d9" style="fill: var(--color2, #d9d9d9)" d="M32 22.229v7.816c0 0.269-0.053 0.536-0.158 0.783s-0.258 0.472-0.452 0.659c-0.337 0.328-0.789 0.511-1.259 0.512-0.026 0-0.052-0.001-0.079-0.002-7.861-0.336-15.308-3.614-20.865-9.185-5.571-5.557-8.85-13.005-9.186-20.867-0.011-0.246 0.029-0.491 0.117-0.721s0.221-0.439 0.393-0.616c0.187-0.193 0.411-0.347 0.659-0.452s0.514-0.159 0.783-0.158h7.817c0.462 0.002 0.907 0.169 1.256 0.472s0.577 0.72 0.645 1.176l1.032 7.227c0.041 0.295 0.014 0.596-0.080 0.878s-0.253 0.54-0.463 0.751l-3.066 3.066c-0.102 0.1-0.168 0.231-0.187 0.372s0.009 0.285 0.080 0.409c2.164 3.53 5.132 6.497 8.662 8.661 0.123 0.071 0.267 0.099 0.408 0.079s0.272-0.085 0.372-0.187l3.066-3.066c0.211-0.21 0.468-0.368 0.751-0.462s0.583-0.122 0.878-0.081l7.227 1.033c0.457 0.067 0.874 0.296 1.177 0.645s0.47 0.794 0.472 1.256z"></path>
</symbol>
<symbol id="icon-refund" viewBox="0 0 40 32">
<path d="M35.478 14.261h-1.391v0.696h1.391c2.109 0 3.826 1.716 3.826 3.826v5.565c0 2.11-1.717 3.826-3.826 3.826h-29.217c-0.192 0-0.348 0.156-0.348 0.348v2.087c0 0.139-0.077 0.258-0.202 0.318-0.106 0.050-0.271 0.033-0.369-0.049l-4.175-3.479c-0.079-0.065-0.124-0.163-0.124-0.268s0.045-0.202 0.125-0.269l4.174-3.478c0.104-0.086 0.246-0.104 0.367-0.050 0.127 0.061 0.204 0.179 0.204 0.319v2.087c0 0.192 0.156 0.348 0.348 0.348h29.217c0.959 0 1.739-0.781 1.739-1.739v-5.565c0-0.959-0.78-1.739-1.739-1.739h-1.391v0.696h1.391c0.575 0 1.043 0.468 1.043 1.043v5.565c0 0.575-0.468 1.043-1.043 1.043h-28.87v-1.739c0-0.409-0.231-0.772-0.607-0.95-0.369-0.169-0.793-0.113-1.105 0.147l-4.173 3.478c-0.239 0.197-0.376 0.49-0.376 0.803s0.137 0.607 0.376 0.803l4.174 3.478c0.186 0.155 0.424 0.241 0.668 0.241 0.153 0 0.304-0.033 0.44-0.096 0.372-0.175 0.603-0.538 0.603-0.947v-1.739h28.87c2.493 0 4.522-2.029 4.522-4.522v-5.565c0-2.493-2.029-4.522-4.522-4.522z"></path>
<path d="M4.87 17.739h1.391v-0.696h-1.391c-2.11 0-3.826-1.716-3.826-3.826v-5.565c0-2.11 1.716-3.826 3.826-3.826h29.217c0.192 0 0.348-0.156 0.348-0.348v-2.087c0-0.139 0.076-0.258 0.2-0.317 0.125-0.058 0.266-0.038 0.369 0.049l4.175 3.479c0.079 0.065 0.125 0.163 0.125 0.268s-0.045 0.202-0.126 0.269l-4.174 3.478c-0.098 0.081-0.266 0.097-0.366 0.050-0.128-0.061-0.204-0.179-0.204-0.319v-2.087c0-0.192-0.156-0.348-0.348-0.348h-29.217c-0.959 0-1.739 0.781-1.739 1.739v5.565c0 0.959 0.781 1.739 1.739 1.739h1.391v-0.696h-1.391c-0.575 0-1.043-0.468-1.043-1.043v-5.565c0-0.575 0.468-1.043 1.043-1.043h28.87v1.739c0 0.409 0.231 0.772 0.605 0.949 0.345 0.159 0.805 0.104 1.106-0.145l4.173-3.478c0.24-0.198 0.377-0.49 0.377-0.804s-0.137-0.607-0.376-0.803l-4.174-3.478c-0.311-0.26-0.734-0.316-1.108-0.145-0.372 0.175-0.603 0.538-0.603 0.947v1.739h-28.87c-2.493 0-4.522 2.029-4.522 4.522v5.565c0 2.493 2.029 4.522 4.522 4.522z"></path>
<path d="M9.043 8.696c-0.959 0-1.739 0.781-1.739 1.739v11.13c0 0.959 0.781 1.739 1.739 1.739h22.261c0.959 0 1.739-0.781 1.739-1.739v-11.13c0-0.959-0.78-1.739-1.739-1.739h-22.261zM32.348 10.435v11.13c0 0.575-0.468 1.043-1.043 1.043h-22.261c-0.575 0-1.043-0.468-1.043-1.043v-11.13c0-0.575 0.468-1.043 1.043-1.043h22.261c0.575 0 1.043 0.468 1.043 1.043z"></path>
<path d="M30.262 10.435c0-0.192-0.156-0.348-0.348-0.348h-5.572v0.696h5.259c0.139 0.68 0.676 1.217 1.357 1.357v7.722c-0.681 0.138-1.217 0.676-1.357 1.357h-5.259v0.696h5.572c0.192 0 0.348-0.156 0.348-0.348 0-0.575 0.468-1.043 1.043-1.043 0.192 0 0.348-0.156 0.348-0.348v-8.348c0-0.192-0.156-0.348-0.348-0.348-0.575 0-1.043-0.468-1.043-1.043z"></path>
<path d="M9.391 19.861v-7.722c0.68-0.138 1.217-0.676 1.357-1.357h5.259v-0.696h-5.572c-0.192 0-0.348 0.156-0.348 0.348 0 0.575-0.468 1.043-1.043 1.043-0.192 0-0.348 0.156-0.348 0.348v8.348c0 0.192 0.156 0.348 0.348 0.348 0.575 0 1.043 0.468 1.043 1.043 0 0.192 0.156 0.348 0.348 0.348h5.572v-0.696h-5.259c-0.139-0.68-0.676-1.217-1.357-1.357z"></path>
<path d="M26.087 16c0-3.261-2.653-5.913-5.913-5.913s-5.913 2.653-5.913 5.913c0 3.261 2.653 5.913 5.913 5.913s5.913-2.653 5.913-5.913zM20.174 21.217c-2.877 0-5.217-2.34-5.217-5.217s2.34-5.217 5.217-5.217c2.877 0 5.217 2.34 5.217 5.217s-2.34 5.217-5.217 5.217z"></path>
<path d="M20.174 15.652c-0.575 0-1.043-0.468-1.043-1.043s0.468-1.043 1.043-1.043h1.391v-0.696h-1.043v-1.043h-0.696v1.079c-0.793 0.161-1.391 0.864-1.391 1.704 0 0.959 0.781 1.739 1.739 1.739 0.575 0 1.043 0.468 1.043 1.043s-0.468 1.043-1.043 1.043h-1.391v0.696h1.043v1.043h0.696v-1.079c0.793-0.161 1.391-0.864 1.391-1.704 0-0.959-0.78-1.739-1.739-1.739z"></path>
<path d="M10.435 15.652h2.783v0.696h-2.783v-0.696z"></path>
<path d="M27.13 15.652h2.783v0.696h-2.783v-0.696z"></path>
</symbol>
</defs>
</svg>
