<svg width="32" height="32" viewBox="0 0 32 32" fill="none" xmlns="http://www.w3.org/2000/svg">
<g clip-path="url(#clip0_131_236)">
<path d="M16.0001 32C24.8366 32 32 24.8366 32 16.0001C32 7.16358 24.8366 -9.59937e-05 16.0001 -9.67662e-05C7.16358 -9.75387e-05 -9.31962e-05 7.16357 -9.39687e-05 16.0001C0.00986543 24.8325 7.16739 31.99 16.0001 32ZM16.0001 1.6001C23.953 1.6001 30.4001 8.04717 30.4001 16.0001C30.4001 23.953 23.953 30.4001 16.0001 30.4001C8.04717 30.4001 1.6001 23.953 1.6001 16.0001C1.60918 8.05098 8.05098 1.60918 16.0001 1.6001Z" fill="white" fill-opacity="0.2"/>
<path d="M17.8722 22.2021C18.205 22.493 18.7104 22.459 19.0013 22.1265C19.2919 21.7937 19.2579 21.2883 18.9254 20.9974L13.2137 16L18.9257 11.0022C19.2585 10.7113 19.2922 10.2059 19.0016 9.87339C18.7106 9.54058 18.2053 9.5066 17.8725 9.79751L11.4726 15.3976C11.2988 15.5494 11.1992 15.7691 11.1992 16C11.1992 16.2308 11.2988 16.4502 11.4726 16.6023L17.8722 22.2021Z" fill="white" fill-opacity="0.2"/>
</g>
<defs>
<clipPath id="clip0_131_236">
<rect width="32" height="32" fill="white" transform="translate(32 32) rotate(-180)"/>
</clipPath>
</defs>
</svg>
