<svg width="12" height="12" viewBox="0 0 12 12" fill="none" xmlns="http://www.w3.org/2000/svg">
<path d="M11.819 5.27548L9.693 1.29448C9.432 0.804977 8.925 0.500977 8.37 0.500977H3.6415C3.088 0.500977 2.5815 0.803976 2.3195 1.29198L0.183 5.27498C-0.061 5.73048 -0.061 6.27448 0.183 6.73048L2.3185 10.7095C2.58 11.1975 3.0865 11.5005 3.6405 11.5005H8.369C8.924 11.5005 9.431 11.1965 9.692 10.707L11.818 6.72598C12.0605 6.27198 12.0605 5.72948 11.818 5.27548H11.819ZM5.955 7.71048C5.762 7.90398 5.507 8.00048 5.2515 8.00048C4.996 8.00048 4.739 7.90298 4.5435 7.70798L3.1525 6.35998L3.8485 5.64148L5.245 6.99498L8.1495 4.14448L8.8515 4.85698L5.955 7.71048Z" fill="black"/>
</svg>
