<svg viewBox="0 0 54 58" xmlns="http://www.w3.org/2000/svg">
<path d="M10 37.5H27.54V36.5H10C9.725 36.5 9.5 36.276 9.5 36V34C9.5 33.724 9.725 33.5 10 33.5H27V32.5H10C9.173 32.5 8.5 33.173 8.5 34V36C8.5 36.827 9.173 37.5 10 37.5Z" fill="black"/>
<path d="M14 15.5H18C18.827 15.5 19.5 14.827 19.5 14V10C19.5 9.173 18.827 8.5 18 8.5H14C13.173 8.5 12.5 9.173 12.5 10V14C12.5 14.827 13.173 15.5 14 15.5ZM13.5 10C13.5 9.724 13.725 9.5 14 9.5H18C18.275 9.5 18.5 9.724 18.5 10V14C18.5 14.276 18.275 14.5 18 14.5H14C13.725 14.5 13.5 14.276 13.5 14V10Z" fill="black"/>
<path d="M27.5 10C27.5 9.173 26.827 8.5 26 8.5H22C21.173 8.5 20.5 9.173 20.5 10V14C20.5 14.827 21.173 15.5 22 15.5H26C26.827 15.5 27.5 14.827 27.5 14V10ZM26.5 14C26.5 14.276 26.275 14.5 26 14.5H22C21.725 14.5 21.5 14.276 21.5 14V10C21.5 9.724 21.725 9.5 22 9.5H26C26.275 9.5 26.5 9.724 26.5 10V14Z" fill="black"/>
<path d="M30 9.5H33.28V8.5H30C29.173 8.5 28.5 9.173 28.5 10V14C28.5 14.827 29.173 15.5 30 15.5H33.18V14.5H30C29.725 14.5 29.5 14.276 29.5 14V10C29.5 9.724 29.725 9.5 30 9.5Z" fill="black"/>
<path d="M12.5 22C12.5 22.827 13.173 23.5 14 23.5H18C18.827 23.5 19.5 22.827 19.5 22V18C19.5 17.173 18.827 16.5 18 16.5H14C13.173 16.5 12.5 17.173 12.5 18V22ZM13.5 18C13.5 17.724 13.725 17.5 14 17.5H18C18.275 17.5 18.5 17.724 18.5 18V22C18.5 22.276 18.275 22.5 18 22.5H14C13.725 22.5 13.5 22.276 13.5 22V18Z" fill="black"/>
<path d="M27.5 22V18C27.5 17.173 26.827 16.5 26 16.5H22C21.173 16.5 20.5 17.173 20.5 18V22C20.5 22.827 21.173 23.5 22 23.5H26C26.827 23.5 27.5 22.827 27.5 22ZM26.5 22C26.5 22.276 26.275 22.5 26 22.5H22C21.725 22.5 21.5 22.276 21.5 22V18C21.5 17.724 21.725 17.5 22 17.5H26C26.275 17.5 26.5 17.724 26.5 18V22Z" fill="black"/>
<path d="M28.5 19.02H29.5V18C29.5 17.724 29.725 17.5 30 17.5H31.02V16.5H30C29.173 16.5 28.5 17.173 28.5 18V19.02Z" fill="black"/>
<path d="M10 5.5H10.5V31H11.5V5.5H36.5V6.857H37.5V5.5H38C38.827 5.5 39.5 4.827 39.5 4V2C39.5 1.173 38.827 0.5 38 0.5H10C9.173 0.5 8.5 1.173 8.5 2V4C8.5 4.827 9.173 5.5 10 5.5ZM9.5 2C9.5 1.724 9.725 1.5 10 1.5H38C38.275 1.5 38.5 1.724 38.5 2V4C38.5 4.276 38.275 4.5 38 4.5H10C9.725 4.5 9.5 4.276 9.5 4V2Z" fill="black"/>
<path d="M34.5358 9.821C34.0938 10.648 34.1398 11.607 34.6608 12.387L36.0698 14.5H36.0038C35.1768 14.5 34.5038 15.173 34.5038 16C34.5038 16.827 35.1768 17.5 36.0038 17.5H42.0038C42.8308 17.5 43.5038 16.827 43.5038 16C43.5038 15.173 42.8308 14.5 42.0038 14.5H41.9378L43.3468 12.387C43.8678 11.607 43.9138 10.648 43.4718 9.821C43.0298 8.994 42.2048 8.5 41.2668 8.5H36.7418C35.8028 8.5 34.9788 8.994 34.5358 9.821ZM42.5038 16C42.5038 16.276 42.2788 16.5 42.0038 16.5H36.0038C35.7288 16.5 35.5038 16.276 35.5038 16C35.5038 15.724 35.7288 15.5 36.0038 15.5H42.0038C42.2788 15.5 42.5038 15.724 42.5038 16ZM42.5898 10.292C42.8548 10.788 42.8268 11.363 42.5148 11.832L40.7358 14.5H37.2708L35.4928 11.832C35.1808 11.364 35.1528 10.789 35.4178 10.292C35.6838 9.796 36.1788 9.5 36.7408 9.5H41.2658C41.8288 9.5 42.3238 9.796 42.5898 10.292Z" fill="black"/>
<g filter="url(#filter0_d_131_101)">
<path d="M44.6338 17.3174C47.5898 18.7134 49.5 21.729 49.5 25V35C49.4999 36.3779 48.379 37.5 47 37.5H31C29.621 37.5 28.5001 36.3779 28.5 35V25C28.5 21.729 30.4102 18.7134 33.3662 17.3174L33.7939 18.2217C31.1859 19.4537 29.5 22.114 29.5 25V35C29.5001 35.8269 30.173 36.5 31 36.5H47C47.827 36.5 48.4999 35.8269 48.5 35V25C48.5 22.114 46.8141 19.4537 44.2061 18.2217L44.6338 17.3174Z" fill="black"/>
</g>
<path d="M11 40.5H3C1.621 40.5 0.5 41.622 0.5 43V55C0.5 56.378 1.621 57.5 3 57.5H11C12.379 57.5 13.5 56.378 13.5 55V43C13.5 41.622 12.379 40.5 11 40.5ZM12.5 55C12.5 55.827 11.827 56.5 11 56.5H3C2.173 56.5 1.5 55.827 1.5 55V43C1.5 42.173 2.173 41.5 3 41.5H11C11.827 41.5 12.5 42.173 12.5 43V55Z" fill="black"/>
<path d="M7 48.5C5.621 48.5 4.5 49.622 4.5 51C4.5 52.378 5.621 53.5 7 53.5C8.379 53.5 9.5 52.378 9.5 51C9.5 49.622 8.379 48.5 7 48.5ZM7 52.5C6.173 52.5 5.5 51.827 5.5 51C5.5 50.173 6.173 49.5 7 49.5C7.827 49.5 8.5 50.173 8.5 51C8.5 51.827 7.827 52.5 7 52.5Z" fill="black"/>
<path d="M47.9991 39.5C47.0651 39.5 46.1871 39.864 45.5251 40.526L37.5521 48.5H36.4471C37.0961 47.864 37.5001 46.979 37.5001 46C37.5001 44.07 35.9301 42.5 34.0001 42.5H29.2071L27.6931 40.986C26.0891 39.383 23.9571 38.5 21.6891 38.5H20.3091C18.0411 38.5 15.9101 39.383 14.2891 41.002L15.0131 41.693C16.4271 40.278 18.3081 39.5 20.3091 39.5H21.6901C23.6911 39.5 25.5721 40.279 26.9861 41.693L28.6461 43.353C28.7391 43.447 28.8661 43.5 28.9991 43.5H33.9991C35.3781 43.5 36.4991 44.622 36.4991 46C36.4991 47.378 35.3781 48.5 33.9991 48.5H24.9991V49.5H37.7591C37.8921 49.5 38.0191 49.447 38.1131 49.354L46.2331 41.234C46.7051 40.76 47.3331 40.5 47.9991 40.5C49.3781 40.5 50.4991 41.622 50.4991 43C50.4991 43.666 50.2381 44.293 49.7661 44.767L40.7661 53.767C40.2931 54.24 39.6651 54.5 38.9991 54.5H14.9991V55.5H38.9991C39.9331 55.5 40.8111 55.136 41.4731 54.474L50.4731 45.474C51.1351 44.812 51.4991 43.933 51.4991 43C51.4991 41.07 49.9291 39.5 47.9991 39.5Z" fill="black"/>
<path d="M24.5 31V25.5H27V24.5H20C19.173 24.5 18.5 25.173 18.5 26V31H19.5V26C19.5 25.724 19.725 25.5 20 25.5H23.5V31H24.5Z" fill="black"/>
<path d="M40 31.5H38C37.173 31.5 36.5 30.827 36.5 30H35.5C35.5 31.378 36.621 32.5 38 32.5H38.5V34H39.5V32.5H40C41.379 32.5 42.5 31.378 42.5 30V29.441C42.5 28.363 41.813 27.41 40.791 27.069L37.525 25.982C36.912 25.777 36.5 25.205 36.5 24.559V24C36.5 23.173 37.173 22.5 38 22.5H40C40.827 22.5 41.5 23.173 41.5 24H42.5C42.5 22.622 41.379 21.5 40 21.5H39.5V20H38.5V21.5H38C36.621 21.5 35.5 22.622 35.5 24V24.559C35.5 25.637 36.187 26.59 37.209 26.931L40.475 28.018C41.088 28.223 41.5 28.795 41.5 29.441V30C41.5 30.827 40.827 31.5 40 31.5Z" fill="black"/>
<defs>
<filter id="filter0_d_131_101" x="24.5" y="17.3174" width="29" height="28.1826" filterUnits="userSpaceOnUse" color-interpolation-filters="sRGB">
<feFlood flood-opacity="0" result="BackgroundImageFix"/>
<feColorMatrix in="SourceAlpha" type="matrix" values="0 0 0 0 0 0 0 0 0 0 0 0 0 0 0 0 0 0 127 0" result="hardAlpha"/>
<feOffset dy="4"/>
<feGaussianBlur stdDeviation="2"/>
<feComposite in2="hardAlpha" operator="out"/>
<feColorMatrix type="matrix" values="0 0 0 0 0 0 0 0 0 0 0 0 0 0 0 0 0 0 0.25 0"/>
<feBlend mode="normal" in2="BackgroundImageFix" result="effect1_dropShadow_131_101"/>
<feBlend mode="normal" in="SourceGraphic" in2="effect1_dropShadow_131_101" result="shape"/>
</filter>
</defs>
</svg>
