<svg width="58" height="58" viewBox="0 0 58 58" fill="none" xmlns="http://www.w3.org/2000/svg">
<path d="M23.001 38.5H18.651C18.453 38.5 18.273 38.617 18.193 38.799C16.672 42.262 13.252 44.5 9.48097 44.5C6.30497 44.5 3.35397 42.923 1.58497 40.28C1.48097 40.127 1.47097 39.929 1.56497 39.759C1.64697 39.599 1.81397 39.5 2.00097 39.5H6.92097C7.09697 39.5 7.25897 39.408 7.34997 39.257L9.74997 35.257C9.84497 35.099 9.84497 34.901 9.74997 34.742L7.34997 30.742C7.25897 30.592 7.09697 30.499 6.92097 30.499H2.00097C1.81397 30.499 1.64697 30.4 1.55797 30.225C1.47097 30.071 1.48197 29.872 1.58697 29.718C3.35497 27.077 6.30597 25.5 9.48097 25.5C13.252 25.5 16.671 27.738 18.193 31.201C18.273 31.383 18.453 31.5 18.651 31.5H23.001V30.5H18.973C17.23 26.844 13.539 24.5 9.48197 24.5C5.97097 24.5 2.70997 26.243 0.756966 29.16C0.438966 29.63 0.410966 30.226 0.676966 30.7C0.931966 31.193 1.43797 31.5 2.00097 31.5H6.63797L8.73897 35L6.63797 38.5H2.00097C1.43797 38.5 0.931966 38.807 0.684966 39.285C0.411966 39.774 0.438966 40.37 0.754966 40.838C2.70897 43.757 5.97097 45.5 9.48097 45.5C13.539 45.5 17.229 43.156 18.972 39.5H23.001V38.5Z" fill="black"/>
<path d="M57.324 39.301C57.069 38.807 56.562 38.5 56 38.5H51.363L49.263 35L51.364 31.5H56C56.562 31.5 57.069 31.193 57.316 30.715C57.589 30.226 57.562 29.63 57.246 29.162C55.292 26.243 52.03 24.5 48.52 24.5C44.462 24.5 40.772 26.844 39.029 30.5H35V31.5H39.35C39.548 31.5 39.728 31.383 39.808 31.201C41.329 27.738 44.749 25.5 48.52 25.5C51.696 25.5 54.647 27.077 56.416 29.72C56.52 29.873 56.53 30.071 56.436 30.241C56.354 30.401 56.187 30.5 56 30.5H51.08C50.904 30.5 50.742 30.592 50.651 30.743L48.251 34.743C48.156 34.901 48.156 35.099 48.251 35.258L50.651 39.258C50.742 39.408 50.904 39.501 51.08 39.501H56C56.187 39.501 56.354 39.6 56.443 39.775C56.53 39.929 56.519 40.128 56.414 40.282C54.646 42.924 51.695 44.5 48.519 44.5C44.748 44.5 41.329 42.262 39.807 38.799C39.727 38.617 39.547 38.5 39.349 38.5H35V39.5H39.028C40.771 43.156 44.462 45.5 48.519 45.5C52.03 45.5 55.291 43.757 57.244 40.84C57.562 40.37 57.59 39.774 57.324 39.301Z" fill="black"/>
<path d="M37 36.5H35V37.5H37C37.675 37.5 38.303 37.237 38.759 36.769C39.237 36.303 39.5 35.675 39.5 35C39.5 33.622 38.379 32.5 37 32.5H35V33.5H37C37.827 33.5 38.5 34.173 38.5 35C38.5 35.403 38.344 35.776 38.052 36.061C37.776 36.344 37.402 36.5 37 36.5Z" fill="black"/>
<path d="M21 33.5H23V32.5H21C20.325 32.5 19.697 32.763 19.241 33.231C18.763 33.697 18.5 34.325 18.5 35C18.5 36.378 19.621 37.5 21 37.5H23V36.5H21C20.173 36.5 19.5 35.827 19.5 35C19.5 34.597 19.656 34.224 19.948 33.939C20.224 33.656 20.598 33.5 21 33.5Z" fill="black"/>
<path d="M35.0005 46.4999H33.5005V26.4199H32.5005V46.9999C32.5005 47.2759 32.7245 47.4999 33.0005 47.4999H35.0005C35.6085 47.4999 36.1535 47.8619 36.3885 48.4209C36.6225 48.9859 36.4935 49.6269 36.0575 50.0559L30.0575 56.0559C29.4855 56.6279 28.5165 56.6279 27.9445 56.0559L21.9415 50.0529C21.5075 49.6269 21.3795 48.9859 21.6125 48.4219C21.8475 47.8619 22.3925 47.4999 23.0005 47.4999H25.0005C25.2765 47.4999 25.5005 47.2759 25.5005 46.9999V26.4199H24.5005V46.4999H23.0005C21.9875 46.4999 21.0805 47.1039 20.6885 48.0389C20.2975 48.9829 20.5135 50.0539 21.2365 50.7639L27.2365 56.7639C27.7135 57.2389 28.3395 57.4999 29.0005 57.4999C29.6615 57.4999 30.2875 57.2389 30.7645 56.7639L36.7615 50.7669C37.4875 50.0539 37.7025 48.9829 37.3115 48.0379C36.9205 47.1039 36.0135 46.4999 35.0005 46.4999Z" fill="black"/>
<path d="M29 25.5C35.893 25.5 41.5 19.893 41.5 13C41.5 6.107 35.893 0.5 29 0.5C22.107 0.5 16.5 6.107 16.5 13C16.5 19.893 22.107 25.5 29 25.5ZM29 1.5C35.341 1.5 40.5 6.659 40.5 13C40.5 19.341 35.341 24.5 29 24.5C22.659 24.5 17.5 19.341 17.5 13C17.5 6.659 22.659 1.5 29 1.5Z" fill="black"/>
<path d="M29 23.5C34.79 23.5 39.5 18.79 39.5 13C39.5 7.21 34.79 2.5 29 2.5C23.21 2.5 18.5 7.21 18.5 13C18.5 18.79 23.21 23.5 29 23.5ZM29 3.5C34.238 3.5 38.5 7.762 38.5 13C38.5 18.238 34.238 22.5 29 22.5C23.762 22.5 19.5 18.238 19.5 13C19.5 7.762 23.762 3.5 29 3.5Z" fill="black"/>
<path d="M28.5 13.5H29.5C30.603 13.5 31.5 14.397 31.5 15.5C31.5 16.603 30.603 17.5 29.5 17.5H26V18.5H28.5V20H29.5V18.5C31.154 18.5 32.5 17.154 32.5 15.5C32.5 13.846 31.154 12.5 29.5 12.5H28.5C27.397 12.5 26.5 11.603 26.5 10.5C26.5 9.397 27.397 8.5 28.5 8.5H32V7.5H29.5V6H28.5V7.5C26.846 7.5 25.5 8.846 25.5 10.5C25.5 12.154 26.846 13.5 28.5 13.5Z" fill="black"/>
</svg>
