<svg width="32" height="32" viewBox="0 0 32 32" fill="none" xmlns="http://www.w3.org/2000/svg">
<g clip-path="url(#clip0_131_239)">
<path d="M15.9999 0C7.16338 0 0 7.16338 0 15.9999C0 24.8364 7.16338 32.0001 15.9999 32.0001C24.8364 32.0001 32.0001 24.8364 32.0001 15.9999C31.9901 7.16748 24.8326 0.0099609 15.9999 0ZM15.9999 30.3999C8.04697 30.3999 1.5999 23.9528 1.5999 15.9999C1.5999 8.04697 8.04697 1.5999 15.9999 1.5999C23.9528 1.5999 30.3999 8.04697 30.3999 15.9999C30.3908 23.949 23.949 30.3908 15.9999 30.3999Z" fill="white"/>
<path d="M14.1278 9.7979C13.795 9.50698 13.2896 9.54096 12.9987 9.87348C12.7081 10.2063 12.7421 10.7117 13.0746 11.0026L18.7863 16L13.0743 20.9978C12.7415 21.2887 12.7078 21.7941 12.9984 22.1266C13.2894 22.4594 13.7947 22.4934 14.1275 22.2025L20.5274 16.6024C20.7012 16.4506 20.8008 16.2309 20.8008 16C20.8008 15.7692 20.7012 15.5498 20.5274 15.3977L14.1278 9.7979Z" fill="white"/>
</g>
<defs>
<clipPath id="clip0_131_239">
<rect width="32" height="32" fill="white"/>
</clipPath>
</defs>
</svg>
