<svg width="19" height="19" viewBox="0 0 19 19" fill="none" xmlns="http://www.w3.org/2000/svg">
<g clip-path="url(#clip0_131_316)">
<path d="M12.3107 10.2886L10.7194 11.8852C10.0741 12.5328 8.9387 12.5468 8.27946 11.8852L6.68809 10.2886L0.972656 16.0226C1.1854 16.1209 1.41997 16.1796 1.66935 16.1796H17.3295C17.5789 16.1796 17.8134 16.121 18.026 16.0226L12.3107 10.2886Z" fill="#D9D9D9"/>
<path d="M17.3294 2.82031H1.66927C1.4199 2.82031 1.18533 2.87902 0.972656 2.9774L7.08001 9.10501C7.08041 9.10542 7.0809 9.10549 7.0813 9.1059C7.08171 9.10631 7.08179 9.10686 7.08179 9.10686L9.06762 11.0993C9.27855 11.3102 9.72023 11.3102 9.93116 11.0993L11.9166 9.1072C11.9166 9.1072 11.9171 9.10631 11.9175 9.1059C11.9175 9.1059 11.9184 9.10542 11.9188 9.10501L18.026 2.97736C17.8133 2.87895 17.5788 2.82031 17.3294 2.82031Z" fill="#D9D9D9"/>
<path d="M0.177605 3.75586C0.0675391 3.97844 0 4.22552 0 4.49018V14.5097C0 14.7744 0.0674648 15.0214 0.177568 15.244L5.90291 9.50013L0.177605 3.75586Z" fill="#D9D9D9"/>
<path d="M18.8229 3.75586L13.0977 9.50021L18.8229 15.2442C18.933 15.0216 19.0005 14.7745 19.0005 14.5098V4.49025C19.0005 4.22552 18.933 3.97844 18.8229 3.75586Z" fill="#D9D9D9"/>
</g>
<defs>
<clipPath id="clip0_131_316">
<rect width="19" height="19" fill="white"/>
</clipPath>
</defs>
</svg>
