<svg width="15" height="19" viewBox="0 0 15 19" fill="none" xmlns="http://www.w3.org/2000/svg">
<path d="M7.49827 0C3.70402 0 0.617188 3.08683 0.617188 6.88104C0.617188 11.5898 6.77508 18.5025 7.03726 18.7945C7.28352 19.0687 7.71347 19.0682 7.95928 18.7945C8.22146 18.5025 14.3793 11.5898 14.3793 6.88104C14.3793 3.08683 11.2925 0 7.49827 0ZM7.49827 10.3431C5.58929 10.3431 4.03626 8.79002 4.03626 6.88104C4.03626 4.97206 5.58932 3.41904 7.49827 3.41904C9.40721 3.41904 10.9602 4.9721 10.9602 6.88108C10.9602 8.79006 9.40721 10.3431 7.49827 10.3431Z" fill="#D9D9D9"/>
</svg>
