<svg width="19" height="19" viewBox="0 0 19 19" fill="none" xmlns="http://www.w3.org/2000/svg">
<path d="M19.0006 13.1991V17.8403C19.0008 18.0001 18.9689 18.1583 18.9066 18.3054C18.8444 18.4526 18.7532 18.5857 18.6384 18.6969C18.4383 18.8915 18.1702 19.0006 17.891 19.0008C17.8754 19.0008 17.8599 19.0004 17.8443 18.9997C13.1767 18.8004 8.75457 16.8538 5.45532 13.546C2.14714 10.2466 0.200255 5.82402 0.000979905 1.15596C-0.00526317 1.01 0.0183758 0.86431 0.070447 0.727815C0.122518 0.591319 0.201924 0.4669 0.303794 0.362187C0.414935 0.247416 0.548046 0.156199 0.695194 0.0939736C0.842342 0.0317483 1.00051 -0.000210993 1.16028 1.04824e-06H5.80154C6.0756 0.00116843 6.34015 0.10054 6.5472 0.280085C6.75426 0.459629 6.89009 0.70745 6.93004 0.978577L7.54309 5.2699C7.5677 5.44511 7.55139 5.62363 7.49544 5.79148C7.43949 5.95932 7.34542 6.11192 7.22061 6.23732L5.40041 8.05752C5.3399 8.11685 5.30081 8.1946 5.28925 8.27855C5.2777 8.3625 5.29434 8.44791 5.33657 8.52139C6.62131 10.6172 8.38363 12.3794 10.4796 13.664C10.5529 13.7061 10.6382 13.7226 10.722 13.7111C10.8058 13.6995 10.8834 13.6605 10.9427 13.6002L12.7633 11.78C12.8887 11.6554 13.0413 11.5614 13.209 11.5055C13.3768 11.4495 13.5552 11.4331 13.7304 11.4575L18.0217 12.0706C18.2929 12.1104 18.5408 12.2462 18.7204 12.4533C18.9 12.6604 18.9994 12.925 19.0006 13.1991Z" fill="#D9D9D9"/>
</svg>
