<svg width="18" height="18" viewBox="0 0 18 18" fill="none" xmlns="http://www.w3.org/2000/svg">
<path d="M17.7285 7.91273L14.5395 1.94123C14.148 1.20698 13.3875 0.750977 12.555 0.750977H5.46225C4.632 0.750977 3.87225 1.20548 3.47925 1.93748L0.2745 7.91198C-0.0915 8.59523 -0.0915 9.41123 0.2745 10.0952L3.47775 16.0637C3.87 16.7957 4.62975 17.2502 5.46075 17.2502H12.5535C13.386 17.2502 14.1465 16.7942 14.538 16.06L17.727 10.0885C18.0907 9.40748 18.0907 8.59373 17.727 7.91273H17.7285ZM8.9325 11.5652C8.643 11.8555 8.2605 12.0002 7.87725 12.0002C7.494 12.0002 7.1085 11.854 6.81525 11.5615L4.72875 9.53948L5.77275 8.46173L7.8675 10.492L12.2242 6.21623L13.2772 7.28498L8.9325 11.5652Z" fill="#D9D9D9"/>
</svg>
